# Blender v2.81 (sub 16) OBJ File: 'Environment Pack.blend'
# www.blender.org
mtllib Rock_A_02_LOD2.mtl
o Rock_A_02_LOD2_Cube.549
v 14.087926 -0.034939 18.942902
v 13.783717 1.535028 18.919462
v 15.841391 -0.121862 19.158138
v 16.422728 1.390423 18.899412
v 14.209630 -0.015667 20.921041
v 13.887488 1.640804 20.909487
v 16.245291 -0.232189 21.097559
v 16.032135 1.332382 20.984657
v 14.988175 0.089832 18.849289
v 13.859387 0.234290 18.698267
v 14.798428 1.622715 18.962793
v 16.359272 0.187092 18.909328
v 16.211576 0.082724 20.059620
v 16.387611 1.686416 20.078680
v 16.384037 0.022524 21.326399
v 15.013659 -0.009657 21.350739
v 14.877290 1.258656 21.181578
v 13.812523 0.345802 21.349184
v 13.953435 -0.027967 19.807886
v 13.693752 1.758351 19.987909
v 15.136951 2.222275 20.229692
v 15.165125 -0.183551 19.766609
v 13.403577 0.393604 19.972273
v 15.150237 0.056585 21.967680
v 16.684587 0.373763 20.310410
v 15.027486 0.238175 18.386919
v 14.524746 -0.005361 18.849520
v 13.765170 1.086634 18.611107
v 15.700742 1.589861 18.824923
v 16.077259 -0.065154 18.956587
v 16.032951 0.035990 19.466181
v 16.045353 1.468997 20.478485
v 16.382828 -0.106888 21.295435
v 15.875429 0.078155 21.320885
v 14.361048 1.393718 21.125023
v 14.060642 0.131460 21.222752
v 13.947121 -0.113398 20.445724
v 13.809093 1.511575 19.212471
v 15.426306 -0.099222 18.921158
v 13.996443 -0.112484 18.750519
v 14.444664 1.739777 19.007141
v 16.376314 0.901690 18.776955
v 16.229698 -0.214775 20.728609
v 16.570875 1.663404 19.577394
v 16.048645 0.851144 21.366051
v 14.536393 0.152298 21.278749
v 15.646200 1.354603 21.002270
v 13.773233 1.134541 21.073498
v 13.897359 0.031554 19.254686
v 13.888714 1.697471 20.762156
v 14.331723 2.104734 20.164328
v 15.884474 2.291476 20.047377
v 14.982981 1.740022 20.811295
v 15.070413 2.014212 19.659019
v 14.755016 -0.077356 19.861141
v 15.499450 0.137428 19.985132
v 14.950943 -0.014692 19.377254
v 15.172873 -0.099508 20.443268
v 13.549442 0.317751 19.203917
v 13.415159 0.138941 20.612200
v 13.378339 -0.159656 19.810764
v 13.578685 1.278068 20.136808
v 14.419714 0.250119 21.889471
v 15.737373 -0.076474 21.744329
v 15.017256 0.201887 22.019682
v 15.009517 0.685794 21.524345
v 16.635235 0.201514 20.787109
v 16.762598 0.360616 19.471436
v 16.649538 0.265046 20.105602
v 16.781076 1.021837 20.195784
v 15.826649 0.132379 18.522366
v 14.319700 0.071425 18.409124
v 15.186688 -0.026463 18.542494
v 14.831273 0.972818 18.419594
v 14.298483 1.043596 18.431108
v 14.645253 -0.157662 18.560257
v 15.709933 -0.138884 18.542789
v 16.854095 1.187374 19.403320
v 16.436615 0.112318 19.334442
v 16.644205 0.079294 20.776770
v 15.528390 0.636857 21.540461
v 15.795525 0.128638 21.716780
v 14.584586 0.329962 21.963139
v 13.590486 1.058936 20.746651
v 13.524222 -0.181643 20.490885
v 13.506934 -0.103528 19.071922
v 15.812603 -0.028431 20.675644
v 15.311423 0.072363 19.571613
v 14.464636 0.018232 19.377466
v 15.926004 2.034432 19.596949
v 15.663443 1.880229 20.533092
v 14.564883 1.787065 20.822893
v 14.449360 1.959691 19.486736
v 14.579986 -0.011499 20.512745
v 13.676826 1.036822 19.262384
v 14.311524 0.886614 21.472931
v 16.335655 0.850861 20.748106
v 15.659392 0.851932 18.481781
vt 0.916667 0.072917
vt 0.916667 0.072917
vt 0.916667 0.072917
vt 0.916667 0.072917
vt 0.916667 0.072917
vt 0.916667 0.072917
vt 0.916667 0.072917
vt 0.916667 0.072917
vt 0.916667 0.072917
vt 0.916667 0.072917
vt 0.916667 0.072917
vt 0.916667 0.072917
vt 0.916667 0.072917
vt 0.916667 0.072917
vt 0.916667 0.072917
vt 0.916667 0.072917
vt 0.916667 0.072917
vt 0.916667 0.072917
vt 0.916667 0.072917
vt 0.916667 0.072917
vt 0.916667 0.072917
vt 0.916667 0.072917
vt 0.916667 0.072917
vt 0.916667 0.072917
vt 0.916667 0.072917
vt 0.916667 0.072917
vt 0.916667 0.072917
vt 0.916667 0.072917
vt 0.916667 0.072917
vt 0.916667 0.072917
vt 0.916667 0.072917
vt 0.916667 0.072917
vt 0.916667 0.072917
vt 0.916667 0.072917
vt 0.916667 0.072917
vt 0.916667 0.072917
vt 0.916667 0.072917
vt 0.916667 0.072917
vt 0.916667 0.072917
vt 0.916667 0.072917
vt 0.916667 0.072917
vt 0.916667 0.072917
vt 0.916667 0.072917
vt 0.916667 0.072917
vt 0.916667 0.072917
vt 0.916667 0.072917
vt 0.916667 0.072917
vt 0.916667 0.072917
vt 0.916667 0.072917
vt 0.916667 0.072917
vt 0.916667 0.072917
vt 0.916667 0.072917
vt 0.916667 0.072917
vt 0.916667 0.072917
vt 0.916667 0.072917
vt 0.916667 0.072917
vt 0.916667 0.072917
vt 0.916667 0.072917
vt 0.916667 0.072917
vt 0.916667 0.072917
vt 0.916667 0.072917
vt 0.916667 0.072917
vt 0.916667 0.072917
vt 0.916667 0.072917
vt 0.916667 0.072917
vt 0.916667 0.072917
vt 0.916667 0.072917
vt 0.916667 0.072917
vt 0.916667 0.072917
vt 0.916667 0.072917
vt 0.916667 0.072917
vt 0.916667 0.072917
vt 0.916667 0.072917
vt 0.916667 0.072917
vt 0.916667 0.072917
vt 0.916667 0.072917
vt 0.916667 0.072917
vt 0.916667 0.072917
vt 0.916667 0.072917
vt 0.916667 0.072917
vt 0.916667 0.072917
vt 0.916667 0.072917
vt 0.916667 0.072917
vt 0.916667 0.072917
vt 0.916667 0.072917
vt 0.916667 0.072917
vt 0.916667 0.072917
vt 0.916667 0.072917
vt 0.916667 0.072917
vt 0.916667 0.072917
vt 0.916667 0.072917
vt 0.916667 0.072917
vt 0.916667 0.072917
vt 0.916667 0.072917
vt 0.916667 0.072917
vt 0.916667 0.072917
vt 0.916667 0.072917
vt 0.916667 0.072917
vn 0.2175 0.2062 -0.9540
vn 0.1401 0.6796 -0.7200
vn 0.5275 0.5173 -0.6738
vn 0.6045 0.1074 -0.7893
vn 0.8069 0.3672 0.4627
vn 0.5946 0.5504 0.5860
vn 0.5744 0.6134 0.5419
vn 0.5020 0.4651 0.7291
vn -0.2209 0.4755 0.8515
vn -0.0750 0.5776 0.8128
vn -0.4944 0.5825 0.6451
vn -0.6911 0.3428 0.6362
vn -0.9692 0.1531 -0.1929
vn -0.7874 0.5827 -0.2011
vn -0.6485 0.6307 -0.4262
vn -0.6908 0.2599 -0.6746
vn -0.0352 -0.9950 0.0930
vn -0.1081 -0.9642 0.2420
vn 0.1095 -0.9644 0.2407
vn 0.1078 -0.9901 0.0902
vn -0.1791 0.9214 -0.3450
vn -0.0925 0.8278 -0.5533
vn -0.0847 0.7727 0.6290
vn -0.2603 0.9617 0.0858
vn -0.7545 0.6552 -0.0361
vn -0.5875 0.6805 0.4379
vn 0.3057 0.6644 0.6819
vn 0.3275 0.9292 0.1711
vn -0.0280 0.9790 0.2018
vn 0.0626 0.7026 0.7088
vn 0.2663 0.8915 -0.3663
vn 0.0495 0.7447 -0.6656
vn -0.0454 0.9144 -0.4023
vn -0.0201 -0.9970 -0.0741
vn -0.1064 -0.9929 -0.0537
vn 0.1152 -0.9899 -0.0827
vn 0.1392 -0.9889 0.0514
vn 0.2223 -0.9726 -0.0681
vn 0.1924 -0.9745 -0.1148
vn 0.2510 -0.9437 -0.2154
vn -0.0015 -0.9922 -0.1249
vn -0.0925 -0.9944 -0.0510
vn -0.1777 -0.9593 0.2194
vn -0.1129 -0.9739 0.1967
vn 0.0616 -0.9976 0.0305
vn -0.6294 -0.6800 -0.3759
vn -0.9402 0.0876 -0.3291
vn -0.6808 -0.1278 -0.7212
vn -0.3226 -0.9003 -0.2921
vn -0.4871 -0.8428 0.2286
vn -0.9174 -0.1955 0.3467
vn -0.9935 0.1053 -0.0425
vn -0.6678 -0.7344 -0.1209
vn -0.9324 0.2308 0.2781
vn -0.9657 0.2594 0.0139
vn -0.0797 -0.7512 -0.6553
vn -0.3159 -0.1991 0.9276
vn -0.6955 -0.2444 0.6756
vn -0.2052 -0.8973 0.3908
vn -0.3858 -0.8002 -0.4592
vn -0.4626 0.8826 -0.0840
vn -0.1498 0.9331 -0.3268
vn -0.0509 -0.5643 -0.8240
vn 0.2144 0.4575 0.8629
vn 0.1861 0.6480 0.7385
vn 0.0900 0.5741 0.8138
vn 0.1141 0.5442 0.8311
vn 0.8741 -0.4831 0.0506
vn 0.9391 0.0958 0.3301
vn 0.8626 0.1720 0.4756
vn 0.3097 -0.9483 0.0692
vn 0.5225 -0.8509 -0.0541
vn 0.8931 -0.4093 -0.1866
vn 0.9788 -0.0703 0.1925
vn 0.6481 -0.7592 -0.0594
vn 0.9509 0.1982 -0.2376
vn 0.7262 0.6638 -0.1788
vn 0.7000 0.6055 0.3786
vn 0.8924 0.2572 0.3706
vn 0.1463 -0.8141 -0.5619
vn 0.3832 -0.2620 -0.8857
vn 0.6946 -0.4154 -0.5872
vn 0.4370 -0.8784 -0.1934
vn 0.0725 -0.9506 -0.3018
vn -0.2660 -0.3263 -0.9070
vn 0.0646 -0.1716 -0.9830
vn -0.0431 -0.8442 -0.5343
vn -0.1522 0.3235 -0.9339
vn 0.0382 0.3171 -0.9476
vn 0.0975 -0.9618 0.2557
vn -0.0032 -0.9858 0.1675
vn 0.0963 -0.9571 0.2733
vn -0.1396 -0.9867 0.0830
vn 0.0642 -0.9771 0.2030
vn 0.1327 -0.9752 0.1773
vn 0.1659 -0.9793 -0.1154
vn 0.0965 -0.9881 -0.1197
vn 0.0070 -0.9923 0.1231
usemtl Mat_UnderWater
s 1
f 98/1/1 29/2/2 4/3/3 42/4/4
f 97/5/5 32/6/6 8/7/7 45/8/8
f 96/9/9 35/10/10 6/11/11 48/12/12
f 95/13/13 38/14/14 2/15/15 28/16/16
f 94/17/17 46/18/18 5/19/19 37/20/20
f 93/21/21 41/22/22 2/15/15 38/14/14
f 92/23/23 51/24/24 20/25/25 50/26/26
f 91/27/27 52/28/28 21/29/29 53/30/30
f 90/31/31 29/2/2 11/32/32 54/33/33
f 89/34/34 55/35/35 19/36/36 49/37/37
f 88/38/38 56/39/39 22/40/40 57/41/41
f 87/42/42 34/43/43 16/44/44 58/45/45
f 86/46/46 59/47/47 10/48/48 40/49/49
f 85/50/50 60/51/51 23/52/52 61/53/53
f 84/54/54 50/26/26 20/25/25 62/55/55
f 83/56/56 63/57/57 18/58/58 36/59/59
f 82/60/60 64/61/61 24/62/62 65/63/63
f 81/64/64 47/65/65 17/66/66 66/67/67
f 80/68/68 67/69/69 15/70/70 33/71/71
f 79/72/72 68/73/73 25/74/74 69/75/75
f 78/76/76 44/77/77 14/78/78 70/79/79
f 77/80/80 71/81/81 12/82/82 30/83/83
f 76/84/84 72/85/85 26/86/86 73/87/87
f 75/88/88 41/22/22 11/32/32 74/89/89
f 72/85/85 75/88/88 74/89/89 26/86/86
f 10/48/48 28/16/16 75/88/88 72/85/85
f 28/16/16 2/15/15 41/22/22 75/88/88
f 27/90/90 76/84/84 73/87/87 9/91/91
f 1/92/92 40/49/49 76/84/84 27/90/90
f 40/49/49 10/48/48 72/85/85 76/84/84
f 39/93/93 77/80/80 30/83/83 3/94/94
f 9/91/91 73/87/87 77/80/80 39/93/93
f 73/87/87 26/86/86 71/81/81 77/80/80
f 68/73/73 78/76/76 70/79/79 25/74/74
f 12/82/82 42/4/4 78/76/76 68/73/73
f 42/4/4 4/3/3 44/77/77 78/76/76
f 31/95/95 79/72/72 69/75/75 13/96/96
f 3/94/94 30/83/83 79/72/72 31/95/95
f 30/83/83 12/82/82 68/73/73 79/72/72
f 43/97/97 80/68/68 33/71/71 7/98/98
f 13/96/96 69/75/75 80/68/68 43/97/97
f 69/75/75 25/74/74 67/69/69 80/68/68
f 64/61/61 81/64/64 66/67/67 24/62/62
f 15/70/70 45/8/8 81/64/64 64/61/61
f 45/8/8 8/7/7 47/65/65 81/64/64
f 34/43/43 82/60/60 65/63/63 16/44/44
f 7/98/98 33/71/71 82/60/60 34/43/43
f 33/71/71 15/70/70 64/61/61 82/60/60
f 46/18/18 83/56/56 36/59/59 5/19/19
f 16/44/44 65/63/63 83/56/56 46/18/18
f 65/63/63 24/62/62 63/57/57 83/56/56
f 60/51/51 84/54/54 62/55/55 23/52/52
f 18/58/58 48/12/12 84/54/54 60/51/51
f 48/12/12 6/11/11 50/26/26 84/54/54
f 37/20/20 85/50/50 61/53/53 19/36/36
f 5/19/19 36/59/59 85/50/50 37/20/20
f 36/59/59 18/58/58 60/51/51 85/50/50
f 49/37/37 86/46/46 40/49/49 1/92/92
f 19/36/36 61/53/53 86/46/46 49/37/37
f 61/53/53 23/52/52 59/47/47 86/46/46
f 56/39/39 87/42/42 58/45/45 22/40/40
f 13/96/96 43/97/97 87/42/42 56/39/39
f 43/97/97 7/98/98 34/43/43 87/42/42
f 39/93/93 88/38/38 57/41/41 9/91/91
f 3/94/94 31/95/95 88/38/38 39/93/93
f 31/95/95 13/96/96 56/39/39 88/38/38
f 27/90/90 89/34/34 49/37/37 1/92/92
f 9/91/91 57/41/41 89/34/34 27/90/90
f 57/41/41 22/40/40 55/35/35 89/34/34
f 52/28/28 90/31/31 54/33/33 21/29/29
f 14/78/78 44/77/77 90/31/31 52/28/28
f 44/77/77 4/3/3 29/2/2 90/31/31
f 47/65/65 91/27/27 53/30/30 17/66/66
f 8/7/7 32/6/6 91/27/27 47/65/65
f 32/6/6 14/78/78 52/28/28 91/27/27
f 35/10/10 92/23/23 50/26/26 6/11/11
f 17/66/66 53/30/30 92/23/23 35/10/10
f 53/30/30 21/29/29 51/24/24 92/23/23
f 51/24/24 93/21/21 38/14/14 20/25/25
f 21/29/29 54/33/33 93/21/21 51/24/24
f 54/33/33 11/32/32 41/22/22 93/21/21
f 55/35/35 94/17/17 37/20/20 19/36/36
f 22/40/40 58/45/45 94/17/17 55/35/35
f 58/45/45 16/44/44 46/18/18 94/17/17
f 59/47/47 95/13/13 28/16/16 10/48/48
f 23/52/52 62/55/55 95/13/13 59/47/47
f 62/55/55 20/25/25 38/14/14 95/13/13
f 63/57/57 96/9/9 48/12/12 18/58/58
f 24/62/62 66/67/67 96/9/9 63/57/57
f 66/67/67 17/66/66 35/10/10 96/9/9
f 67/69/69 97/5/5 45/8/8 15/70/70
f 25/74/74 70/79/79 97/5/5 67/69/69
f 70/79/79 14/78/78 32/6/6 97/5/5
f 71/81/81 98/1/1 42/4/4 12/82/82
f 26/86/86 74/89/89 98/1/1 71/81/81
f 74/89/89 11/32/32 29/2/2 98/1/1
