# Blender v2.81 (sub 16) OBJ File: 'Environment Pack.blend'
# www.blender.org
mtllib Rock_A_01_LOD2.mtl
o Rock_A_01_LOD2_Cube.548
v 4.314178 -0.038044 20.701113
v 4.339828 1.545553 20.875677
v 4.460809 -0.124071 19.533138
v 4.331197 1.404349 19.161831
v 5.631817 -0.019665 20.623926
v 5.614030 1.654490 20.810207
v 5.758039 -0.233160 19.257467
v 5.666831 1.346918 19.425104
v 4.260561 0.089121 20.096199
v 4.194331 0.229374 20.827450
v 4.380208 1.636701 20.225483
v 4.331004 0.177378 19.209238
v 5.084922 0.080477 19.294147
v 5.073148 1.701037 19.195831
v 5.898086 0.022726 19.189428
v 5.921363 -0.012510 20.072121
v 5.788510 1.273769 20.174589
v 5.913208 0.340702 20.856009
v 4.915500 -0.028805 20.793169
v 5.029369 1.767257 20.927670
v 5.178998 2.223266 19.994535
v 4.893323 -0.185679 19.990459
v 5.019641 0.395294 21.119825
v 6.340499 0.052615 19.956501
v 5.236779 0.371630 18.998466
v 3.994973 0.231413 20.072239
v 4.254277 -0.008057 20.413034
v 4.133787 1.093693 20.887381
v 4.286474 1.601970 19.629038
v 4.348555 -0.071509 19.395811
v 4.666668 0.033185 19.410351
v 5.330618 1.482729 19.417049
v 5.884437 -0.110028 19.181152
v 5.899261 0.074058 19.494738
v 5.750665 1.409085 20.511101
v 5.824668 0.121966 20.701550
v 5.326770 -0.114292 20.797810
v 4.521707 1.524191 20.849495
v 4.312209 -0.100480 19.794123
v 4.212416 -0.113632 20.742598
v 4.404714 1.749517 20.451477
v 4.247197 0.905776 19.192507
v 5.531087 -0.215663 19.274195
v 4.766164 1.675912 19.074184
v 5.919453 0.862443 19.410328
v 5.869237 0.147846 20.389532
v 5.670188 1.369707 19.668051
v 5.728001 1.143866 20.882559
v 4.537266 0.031061 20.830910
v 5.521719 1.709789 20.804287
v 5.141008 2.108054 20.516211
v 5.063173 2.293156 19.514906
v 5.541670 1.755041 20.103113
v 4.836585 2.021785 20.038902
v 4.948448 -0.078120 20.244148
v 5.034090 0.135853 19.767094
v 4.631614 -0.015635 20.121296
v 5.328660 -0.099747 19.977562
v 4.517089 0.319476 21.024471
v 5.431639 0.135006 21.114704
v 4.917101 -0.158156 21.149891
v 5.127614 1.286224 21.002382
v 6.266739 0.248483 20.461439
v 6.172355 -0.078915 19.603832
v 6.400231 0.198266 20.062502
v 6.017573 0.699735 20.086916
v 5.551385 0.202249 19.030525
v 4.691853 0.350319 18.947334
v 5.110065 0.250245 19.024790
v 5.152746 1.029273 18.932190
v 4.083081 0.124534 19.550282
v 4.008675 0.063823 20.533823
v 4.089571 -0.031304 19.960833
v 4.017078 0.981558 20.202665
v 4.024264 1.051728 20.551600
v 4.086507 -0.157744 20.330416
v 4.088386 -0.142482 19.621670
v 4.645580 1.191316 18.885513
v 4.595111 0.101843 19.162651
v 5.554916 0.068541 19.026863
v 6.029417 0.649759 19.744965
v 6.176436 0.128172 19.552076
v 6.351861 0.326706 20.346001
v 5.524811 1.066834 20.995932
v 5.352510 -0.183406 21.055317
v 4.429719 -0.103406 21.062607
v 5.491217 -0.028933 19.540932
v 4.751359 0.071559 19.892302
v 4.627550 0.017888 20.444223
v 4.791592 2.042992 19.488245
v 5.358600 1.896217 19.661343
v 5.552217 1.799438 20.371590
v 4.718679 1.967129 20.443518
v 5.370916 -0.012069 20.366356
v 4.551925 1.042245 20.938093
v 5.984200 0.899631 20.540110
v 5.518054 0.862435 19.228596
v 4.057283 0.858665 19.657326
vt 0.916667 0.072917
vt 0.916667 0.072917
vt 0.916667 0.072917
vt 0.916667 0.072917
vt 0.916667 0.072917
vt 0.916667 0.072917
vt 0.916667 0.072917
vt 0.916667 0.072917
vt 0.916667 0.072917
vt 0.916667 0.072917
vt 0.916667 0.072917
vt 0.916667 0.072917
vt 0.916667 0.072917
vt 0.916667 0.072917
vt 0.916667 0.072917
vt 0.916667 0.072917
vt 0.916667 0.072917
vt 0.916667 0.072917
vt 0.916667 0.072917
vt 0.916667 0.072917
vt 0.916667 0.072917
vt 0.916667 0.072917
vt 0.916667 0.072917
vt 0.916667 0.072917
vt 0.916667 0.072917
vt 0.916667 0.072917
vt 0.916667 0.072917
vt 0.916667 0.072917
vt 0.916667 0.072917
vt 0.916667 0.072917
vt 0.916667 0.072917
vt 0.916667 0.072917
vt 0.916667 0.072917
vt 0.916667 0.072917
vt 0.916667 0.072917
vt 0.916667 0.072917
vt 0.916667 0.072917
vt 0.916667 0.072917
vt 0.916667 0.072917
vt 0.916667 0.072917
vt 0.916667 0.072917
vt 0.916667 0.072917
vt 0.916667 0.072917
vt 0.916667 0.072917
vt 0.916667 0.072917
vt 0.916667 0.072917
vt 0.916667 0.072917
vt 0.916667 0.072917
vt 0.916667 0.072917
vt 0.916667 0.072917
vt 0.916667 0.072917
vt 0.916667 0.072917
vt 0.916667 0.072917
vt 0.916667 0.072917
vt 0.916667 0.072917
vt 0.916667 0.072917
vt 0.916667 0.072917
vt 0.916667 0.072917
vt 0.916667 0.072917
vt 0.916667 0.072917
vt 0.916667 0.072917
vt 0.916667 0.072917
vt 0.916667 0.072917
vt 0.916667 0.072917
vt 0.916667 0.072917
vt 0.916667 0.072917
vt 0.916667 0.072917
vt 0.916667 0.072917
vt 0.916667 0.072917
vt 0.916667 0.072917
vt 0.916667 0.072917
vt 0.916667 0.072917
vt 0.916667 0.072917
vt 0.916667 0.072917
vt 0.916667 0.072917
vt 0.916667 0.072917
vt 0.916667 0.072917
vt 0.916667 0.072917
vt 0.916667 0.072917
vt 0.916667 0.072917
vt 0.916667 0.072917
vt 0.916667 0.072917
vt 0.916667 0.072917
vt 0.916667 0.072917
vt 0.916667 0.072917
vt 0.916667 0.072917
vt 0.916667 0.072917
vt 0.916667 0.072917
vt 0.916667 0.072917
vt 0.916667 0.072917
vt 0.916667 0.072917
vt 0.916667 0.072917
vt 0.916667 0.072917
vt 0.916667 0.072917
vt 0.916667 0.072917
vt 0.916667 0.072917
vt 0.916667 0.072917
vt 0.916667 0.072917
vn -0.9649 0.1378 -0.2235
vn -0.8136 0.5582 -0.1628
vn -0.7353 0.3754 -0.5643
vn -0.7880 0.0655 -0.6121
vn 0.4764 0.2496 -0.8431
vn 0.6426 0.4111 -0.6466
vn 0.6246 0.4676 -0.6254
vn 0.7665 0.3507 -0.5381
vn 0.9115 0.3417 0.2290
vn 0.9034 0.4213 0.0797
vn 0.7148 0.4422 0.5417
vn 0.6650 0.2484 0.7043
vn -0.1880 0.1000 0.9771
vn -0.2257 0.4571 0.8603
vn -0.5195 0.5224 0.6761
vn -0.6782 0.1894 0.7100
vn 0.1398 -0.9886 0.0556
vn 0.3403 -0.9275 0.1549
vn 0.3413 -0.9264 -0.1589
vn 0.1281 -0.9778 -0.1659
vn -0.4851 0.8411 0.2391
vn -0.6688 0.7308 0.1367
vn 0.7570 0.6416 0.1232
vn 0.1090 0.9288 0.3540
vn -0.0338 0.5648 0.8245
vn 0.5329 0.5546 0.6391
vn 0.7988 0.4881 -0.3515
vn 0.1588 0.9139 -0.3736
vn 0.2370 0.9702 0.0491
vn 0.8354 0.5447 -0.0735
vn -0.4916 0.7981 -0.3484
vn -0.7956 0.6027 -0.0600
vn -0.5581 0.8272 0.0648
vn -0.1095 -0.9936 0.0269
vn -0.0789 -0.9831 0.1650
vn -0.1231 -0.9759 -0.1801
vn 0.0813 -0.9720 -0.2206
vn -0.0505 -0.9644 -0.2594
vn -0.1568 -0.9562 -0.2471
vn -0.2567 -0.9296 -0.2646
vn -0.1848 -0.9827 -0.0047
vn -0.0725 -0.9879 0.1368
vn 0.3036 -0.9191 0.2511
vn 0.2746 -0.9487 0.1568
vn 0.0473 -0.9961 -0.0742
vn -0.3643 -0.7068 0.6063
vn -0.3280 0.0707 0.9420
vn -0.7353 -0.0661 0.6745
vn -0.2490 -0.8978 0.3631
vn 0.2694 -0.8293 0.4895
vn 0.3664 -0.1431 0.9193
vn -0.0447 0.0899 0.9949
vn -0.1556 -0.7601 0.6308
vn 0.2739 0.1496 0.9500
vn 0.0086 0.1763 0.9843
vn -0.5843 -0.7975 0.1497
vn 0.9336 -0.1051 0.3425
vn 0.6742 -0.1866 0.7146
vn 0.5303 -0.8019 0.2753
vn -0.4831 -0.7300 0.4833
vn 0.0455 0.9730 0.2261
vn -0.2391 0.9669 0.0888
vn -0.8442 -0.5339 0.0479
vn 0.9127 0.3274 -0.2443
vn 0.8387 0.4972 -0.2221
vn 0.9006 0.4226 -0.1015
vn 0.9046 0.4071 -0.1263
vn 0.0342 -0.3598 -0.9324
vn 0.3127 0.0745 -0.9469
vn 0.4908 0.3272 -0.8075
vn 0.1887 -0.9104 -0.3681
vn -0.0592 -0.7442 -0.6653
vn -0.1996 -0.2995 -0.9330
vn 0.2006 -0.0703 -0.9771
vn -0.0668 -0.6004 -0.7969
vn -0.2231 0.1599 -0.9616
vn -0.2321 0.5378 -0.8104
vn 0.4178 0.4517 -0.7882
vn 0.3963 0.1820 -0.8999
vn -0.6009 -0.7824 -0.1634
vn -0.9078 -0.1695 -0.3835
vn -0.6068 -0.3112 -0.7313
vn -0.1989 -0.8122 -0.5484
vn -0.2885 -0.9530 -0.0919
vn -0.9383 -0.2199 0.2669
vn -0.9939 -0.0909 -0.0617
vn -0.5830 -0.8061 0.1012
vn -0.9601 0.2401 0.1429
vn -0.9727 0.2281 -0.0409
vn 0.3963 -0.9078 -0.1368
vn 0.2562 -0.9664 0.0197
vn 0.4182 -0.8936 -0.1627
vn 0.1341 -0.9700 0.2029
vn 0.2867 -0.9536 -0.0916
vn 0.2601 -0.9471 -0.1878
vn -0.1644 -0.9579 -0.2351
vn -0.1529 -0.9811 -0.1181
vn 0.1793 -0.9836 -0.0173
usemtl Mat_UnderWater
s 1
f 98/1/1 29/2/2 4/3/3 42/4/4
f 97/5/5 32/6/6 8/7/7 45/8/8
f 96/9/9 35/10/10 6/11/11 48/12/12
f 95/13/13 38/14/14 2/15/15 28/16/16
f 94/17/17 46/18/18 5/19/19 37/20/20
f 93/21/21 41/22/22 2/15/15 38/14/14
f 92/23/23 51/24/24 20/25/25 50/26/26
f 91/27/27 52/28/28 21/29/29 53/30/30
f 90/31/31 29/2/2 11/32/32 54/33/33
f 89/34/34 55/35/35 19/36/36 49/37/37
f 88/38/38 56/39/39 22/40/40 57/41/41
f 87/42/42 34/43/43 16/44/44 58/45/45
f 86/46/46 59/47/47 10/48/48 40/49/49
f 85/50/50 60/51/51 23/52/52 61/53/53
f 84/54/54 50/26/26 20/25/25 62/55/55
f 83/56/56 63/57/57 18/58/58 36/59/59
f 82/60/60 64/61/61 24/62/62 65/63/63
f 81/64/64 47/65/65 17/66/66 66/67/67
f 80/68/68 67/69/69 15/70/70 33/71/71
f 79/72/72 68/73/73 25/74/74 69/75/75
f 78/76/76 44/77/77 14/78/78 70/79/79
f 77/80/80 71/81/81 12/82/82 30/83/83
f 76/84/84 72/85/85 26/86/86 73/87/87
f 75/88/88 41/22/22 11/32/32 74/89/89
f 72/85/85 75/88/88 74/89/89 26/86/86
f 10/48/48 28/16/16 75/88/88 72/85/85
f 28/16/16 2/15/15 41/22/22 75/88/88
f 27/90/90 76/84/84 73/87/87 9/91/91
f 1/92/92 40/49/49 76/84/84 27/90/90
f 40/49/49 10/48/48 72/85/85 76/84/84
f 39/93/93 77/80/80 30/83/83 3/94/94
f 9/91/91 73/87/87 77/80/80 39/93/93
f 73/87/87 26/86/86 71/81/81 77/80/80
f 68/73/73 78/76/76 70/79/79 25/74/74
f 12/82/82 42/4/4 78/76/76 68/73/73
f 42/4/4 4/3/3 44/77/77 78/76/76
f 31/95/95 79/72/72 69/75/75 13/96/96
f 3/94/94 30/83/83 79/72/72 31/95/95
f 30/83/83 12/82/82 68/73/73 79/72/72
f 43/97/97 80/68/68 33/71/71 7/98/98
f 13/96/96 69/75/75 80/68/68 43/97/97
f 69/75/75 25/74/74 67/69/69 80/68/68
f 64/61/61 81/64/64 66/67/67 24/62/62
f 15/70/70 45/8/8 81/64/64 64/61/61
f 45/8/8 8/7/7 47/65/65 81/64/64
f 34/43/43 82/60/60 65/63/63 16/44/44
f 7/98/98 33/71/71 82/60/60 34/43/43
f 33/71/71 15/70/70 64/61/61 82/60/60
f 46/18/18 83/56/56 36/59/59 5/19/19
f 16/44/44 65/63/63 83/56/56 46/18/18
f 65/63/63 24/62/62 63/57/57 83/56/56
f 60/51/51 84/54/54 62/55/55 23/52/52
f 18/58/58 48/12/12 84/54/54 60/51/51
f 48/12/12 6/11/11 50/26/26 84/54/54
f 37/20/20 85/50/50 61/53/53 19/36/36
f 5/19/19 36/59/59 85/50/50 37/20/20
f 36/59/59 18/58/58 60/51/51 85/50/50
f 49/37/37 86/46/46 40/49/49 1/92/92
f 19/36/36 61/53/53 86/46/46 49/37/37
f 61/53/53 23/52/52 59/47/47 86/46/46
f 56/39/39 87/42/42 58/45/45 22/40/40
f 13/96/96 43/97/97 87/42/42 56/39/39
f 43/97/97 7/98/98 34/43/43 87/42/42
f 39/93/93 88/38/38 57/41/41 9/91/91
f 3/94/94 31/95/95 88/38/38 39/93/93
f 31/95/95 13/96/96 56/39/39 88/38/38
f 27/90/90 89/34/34 49/37/37 1/92/92
f 9/91/91 57/41/41 89/34/34 27/90/90
f 57/41/41 22/40/40 55/35/35 89/34/34
f 52/28/28 90/31/31 54/33/33 21/29/29
f 14/78/78 44/77/77 90/31/31 52/28/28
f 44/77/77 4/3/3 29/2/2 90/31/31
f 47/65/65 91/27/27 53/30/30 17/66/66
f 8/7/7 32/6/6 91/27/27 47/65/65
f 32/6/6 14/78/78 52/28/28 91/27/27
f 35/10/10 92/23/23 50/26/26 6/11/11
f 17/66/66 53/30/30 92/23/23 35/10/10
f 53/30/30 21/29/29 51/24/24 92/23/23
f 51/24/24 93/21/21 38/14/14 20/25/25
f 21/29/29 54/33/33 93/21/21 51/24/24
f 54/33/33 11/32/32 41/22/22 93/21/21
f 55/35/35 94/17/17 37/20/20 19/36/36
f 22/40/40 58/45/45 94/17/17 55/35/35
f 58/45/45 16/44/44 46/18/18 94/17/17
f 59/47/47 95/13/13 28/16/16 10/48/48
f 23/52/52 62/55/55 95/13/13 59/47/47
f 62/55/55 20/25/25 38/14/14 95/13/13
f 63/57/57 96/9/9 48/12/12 18/58/58
f 24/62/62 66/67/67 96/9/9 63/57/57
f 66/67/67 17/66/66 35/10/10 96/9/9
f 67/69/69 97/5/5 45/8/8 15/70/70
f 25/74/74 70/79/79 97/5/5 67/69/69
f 70/79/79 14/78/78 32/6/6 97/5/5
f 71/81/81 98/1/1 42/4/4 12/82/82
f 26/86/86 74/89/89 98/1/1 71/81/81
f 74/89/89 11/32/32 29/2/2 98/1/1
