# Blender v2.81 (sub 16) OBJ File: 'Environment Pack.blend'
# www.blender.org
mtllib Starfish_03_LOD2.mtl
o Starfish_03_LOD2_Star.000
v -5.357522 0.303671 30.156467
v -5.380378 0.296558 30.000612
v -4.690773 0.295119 30.000612
v -4.690773 -0.295119 30.000612
v -3.134327 0.299378 28.644516
v -3.134327 -0.299378 28.644516
v -4.905018 0.295115 29.705700
v -4.905018 -0.295115 29.705700
v -5.713771 0.299379 27.806408
v -5.713771 -0.299379 27.806408
v -5.253145 0.294890 29.817774
v -5.253145 -0.294890 29.817774
v -7.307801 0.299460 30.000610
v -7.307801 -0.299460 30.000610
v -5.254140 0.294681 30.184650
v -5.254140 -0.294681 30.184650
v -5.713724 0.299460 32.194672
v -5.713724 -0.299460 32.194672
v -4.904928 0.294894 30.297052
v -4.904928 -0.294894 30.297052
v -3.134331 0.299379 31.356705
v -3.134331 -0.299379 31.356705
v -5.667805 0.302033 32.151417
v -5.667805 -0.302033 32.151417
v -3.197254 0.301724 31.349506
v -3.197254 -0.301724 31.349506
v -3.160603 0.301714 28.702147
v -3.160603 -0.301714 28.702147
v -7.252471 0.302043 30.030895
v -7.252471 -0.302043 30.030895
v -5.726372 0.301723 27.868475
v -5.726372 -0.301723 27.868475
v -5.725429 0.302043 32.132690
v -5.725429 -0.302043 32.132690
v -7.252476 0.302032 29.970304
v -7.252476 -0.302032 29.970304
v -3.160597 0.301708 31.299065
v -3.160597 -0.301708 31.299065
v -3.197257 0.301714 28.651697
v -3.197257 -0.301714 28.651697
v -5.667068 0.301708 27.849199
v -5.667068 -0.301708 27.849199
v -5.076601 0.296553 30.233767
v -5.245982 0.296553 30.000622
v -5.076664 0.296558 29.767262
v -4.802335 0.296558 29.856394
v -4.802342 0.296558 30.144838
v -4.802335 -0.296558 29.856394
v -5.076599 -0.296553 30.233761
v -5.076658 -0.296558 29.767281
v -4.802341 -0.296558 30.144838
v -5.245993 -0.296553 30.000622
v -5.357522 -0.303671 30.156467
v -5.380389 -0.296558 30.000612
v -5.357578 0.303653 29.844723
v -5.357578 -0.303653 29.844723
v -5.123680 0.296563 29.622519
v -5.262218 0.303246 29.698668
v -5.262218 -0.303246 29.698668
v -5.123674 -0.296563 29.622534
v -4.966830 0.303227 29.602638
v -4.966830 -0.303227 29.602638
v -4.678889 0.296564 29.766706
v -4.794188 0.303231 29.658531
v -4.794188 -0.303231 29.658531
v -4.678889 -0.296564 29.766706
v -4.611638 0.303230 29.909790
v -4.611638 -0.303230 29.909790
v -4.678892 0.296563 30.234512
v -4.678891 -0.296563 30.234512
v -4.794221 0.303239 30.342649
v -4.794221 -0.303239 30.342649
v -4.611629 0.303220 30.091417
v -4.611629 -0.303220 30.091417
v -5.118122 0.296558 30.361588
v -4.962813 0.303653 30.388069
v -4.962813 -0.303653 30.388069
v -5.118120 -0.296558 30.361582
v -5.259284 0.303671 30.291681
v -5.259284 -0.303671 30.291681
v -5.653405 0.296541 27.992132
v -5.732708 -0.301654 28.148222
v -5.732708 0.301654 28.148222
v -5.653403 -0.296541 27.992138
v -5.497520 0.301642 28.071802
v -5.497520 -0.301641 28.071802
v -7.157341 0.296511 30.000595
v -7.157344 -0.296511 30.000595
v -7.041071 0.301783 29.892378
v -7.041071 -0.301783 29.892378
v -7.041070 -0.301792 30.108829
v -7.041070 0.301792 30.108829
v -3.292274 0.296541 28.759272
v -3.292274 -0.296541 28.759272
v -3.319891 0.301648 28.932165
v -3.319891 -0.301648 28.932165
v -3.465239 0.301647 28.732109
v -3.465239 -0.301647 28.732109
v -3.292265 0.296541 31.241934
v -3.292264 -0.296541 31.241934
v -3.465236 0.301654 31.269102
v -3.465236 -0.301654 31.269102
v -3.319888 0.301641 31.069050
v -3.319888 -0.301641 31.069050
v -5.667216 0.296511 32.051579
v -5.667215 -0.296511 32.051579
v -5.734223 0.301792 31.907551
v -5.734223 -0.301792 31.907551
v -5.528365 0.301784 31.974440
v -5.528365 -0.301784 31.974440
v -4.542084 0.000000 30.000462
v -2.826802 -0.000000 31.579693
v -2.826822 -0.000000 28.421099
v -4.858910 0.000000 29.564365
v -5.830817 0.000000 27.445021
v -5.370590 0.000000 29.729668
v -7.687442 0.000000 30.000387
v -5.371469 0.000000 30.269894
v -5.830830 0.000000 32.555794
v -4.857395 0.000000 30.435989
v -5.406347 -0.000000 30.312878
v -5.643882 0.000000 32.484234
v -3.020508 -0.000000 31.631674
v -2.837264 0.000000 28.621357
v -7.561617 0.000000 30.156115
v -5.940113 0.000000 27.613182
v -5.940052 -0.000000 32.388008
v -7.561613 -0.000000 29.844704
v -2.837269 0.000000 31.379456
v -3.020506 -0.000000 28.369146
v -5.643614 0.000000 27.516851
v -5.406401 -0.000000 29.687941
v -4.833405 0.000000 29.507833
v -5.425300 0.000000 29.700199
v -4.480242 0.000000 30.006987
v -4.846026 -0.000000 29.503529
v -4.480232 0.000000 29.993835
v -4.846056 -0.000000 30.497272
v -5.423128 0.000000 30.289782
v -4.828794 0.000000 30.482948
v -5.433101 0.000000 27.795059
v -5.946896 0.000000 27.961996
v -7.291068 0.000000 29.747427
v -7.291071 -0.000000 30.253391
v -3.354307 -0.000000 28.470465
v -3.036775 -0.000000 28.907513
v -3.036782 0.000000 31.093302
v -3.354311 0.000000 31.530354
v -5.467763 0.000000 32.256989
v -5.948964 0.000000 32.100639
v -5.001711 0.295748 30.001236
v -5.001711 -0.295748 30.001238
vt 0.083333 0.590278
vt 0.083333 0.590278
vt 0.083333 0.590278
vt 0.083333 0.590278
vt 0.083333 0.590278
vt 0.083333 0.590278
vt 0.083333 0.590278
vt 0.083333 0.590278
vt 0.585707 0.581528
vt 0.585707 0.581528
vt 0.585707 0.581528
vt 0.585707 0.581528
vt 0.585707 0.581528
vt 0.585707 0.581528
vt 0.585707 0.581528
vt 0.585707 0.581528
vt 0.585707 0.581528
vt 0.585707 0.581528
vt 0.585707 0.581528
vt 0.585707 0.581528
vt 0.585707 0.581528
vt 0.083333 0.590278
vt 0.083333 0.590278
vt 0.083333 0.590278
vt 0.083333 0.590278
vt 0.083333 0.590278
vt 0.083333 0.590278
vt 0.083333 0.590278
vt 0.083333 0.590278
vt 0.083333 0.590278
vt 0.083333 0.590278
vt 0.083333 0.590278
vt 0.083333 0.590278
vt 0.585707 0.581528
vt 0.585707 0.581528
vt 0.083333 0.590278
vt 0.083333 0.590278
vt 0.083333 0.590278
vt 0.083333 0.590278
vt 0.083333 0.590278
vt 0.083333 0.590278
vt 0.083333 0.590278
vt 0.083333 0.590278
vt 0.083333 0.590278
vt 0.083333 0.590278
vt 0.083333 0.590278
vt 0.083333 0.590278
vt 0.083333 0.590278
vt 0.083333 0.590278
vt 0.083333 0.590278
vt 0.083333 0.590278
vt 0.083333 0.590278
vt 0.083333 0.590278
vt 0.083333 0.590278
vt 0.083333 0.590278
vt 0.083333 0.590278
vt 0.083333 0.590278
vt 0.083333 0.590278
vt 0.083333 0.590278
vt 0.083333 0.590278
vt 0.083333 0.590278
vt 0.083333 0.590278
vt 0.083333 0.590278
vt 0.083333 0.590278
vt 0.083333 0.590278
vt 0.083333 0.590278
vt 0.083333 0.590278
vt 0.083333 0.590278
vt 0.083333 0.590278
vt 0.083333 0.590278
vt 0.585707 0.581528
vt 0.585707 0.581528
vt 0.585707 0.581528
vt 0.585707 0.581528
vt 0.585707 0.581528
vt 0.585707 0.581528
vt 0.585707 0.581528
vt 0.585707 0.581528
vt 0.585707 0.581528
vt 0.585707 0.581528
vt 0.585707 0.581528
vt 0.585707 0.581528
vt 0.585707 0.581528
vt 0.585707 0.581528
vt 0.585707 0.581528
vt 0.585707 0.581528
vt 0.585707 0.581528
vt 0.585707 0.581528
vt 0.585707 0.581528
vt 0.585707 0.581528
vt 0.585707 0.581528
vt 0.585707 0.581528
vt 0.585707 0.581528
vt 0.585707 0.581528
vt 0.585707 0.581528
vt 0.585707 0.581528
vt 0.585707 0.581528
vt 0.585707 0.581528
vt 0.585707 0.581528
vt 0.083333 0.590278
vt 0.083333 0.590278
vt 0.083333 0.590278
vt 0.083333 0.590278
vt 0.083333 0.590278
vt 0.083333 0.590278
vt 0.083333 0.590278
vt 0.083333 0.590278
vt 0.083333 0.590278
vt 0.083333 0.590278
vt 0.083333 0.590278
vt 0.083333 0.590278
vt 0.083333 0.590278
vt 0.083333 0.590278
vt 0.083333 0.590278
vt 0.083333 0.590278
vt 0.083333 0.590278
vt 0.083333 0.590278
vt 0.083333 0.590278
vt 0.083333 0.590278
vt 0.083333 0.590278
vt 0.083333 0.590278
vt 0.083333 0.590278
vt 0.083333 0.590278
vt 0.083333 0.590278
vt 0.083333 0.590278
vt 0.083333 0.590278
vt 0.083333 0.590278
vt 0.083333 0.590278
vt 0.083333 0.590278
vt 0.083333 0.590278
vt 0.083333 0.590278
vt 0.083333 0.590278
vt 0.083333 0.590278
vt 0.083333 0.590278
vt 0.083333 0.590278
vt 0.083333 0.590278
vt 0.083333 0.590278
vt 0.083333 0.590278
vt 0.083333 0.590278
vt 0.083333 0.590278
vt 0.083333 0.590278
vt 0.083333 0.590278
vt 0.083333 0.590278
vt 0.083333 0.590278
vt 0.083333 0.590278
vt 0.083333 0.590278
vt 0.083333 0.590278
vt 0.083333 0.590278
vt 0.083333 0.590278
vt 0.083333 0.590278
vt 0.083333 0.590278
vt 0.083333 0.590278
vt 0.083333 0.590278
vt 0.083333 0.590278
vt 0.083333 0.590278
vt 0.585707 0.581528
vt 0.083333 0.590278
vt 0.083333 0.590278
vt 0.585707 0.581528
vt 0.083333 0.590278
vt 0.083333 0.590278
vt 0.083333 0.590278
vt 0.585707 0.581528
vt 0.585707 0.581528
vt 0.585707 0.581528
vt 0.083333 0.590278
vt 0.083333 0.590278
vt 0.083333 0.590278
vt 0.083333 0.590278
vt 0.083333 0.590278
vt 0.083333 0.590278
vt 0.083333 0.590278
vt 0.083333 0.590278
vt 0.585707 0.581528
vt 0.083333 0.590278
vt 0.083333 0.590278
vt 0.083333 0.590278
vt 0.083333 0.590278
vt 0.083333 0.590278
vt 0.083333 0.590278
vt 0.585707 0.581528
vt 0.585707 0.581528
vt 0.083333 0.590278
vt 0.083333 0.590278
vt 0.585707 0.581528
vt 0.585707 0.581528
vt 0.585707 0.581528
vt 0.585707 0.581528
vt 0.083333 0.590278
vt 0.083333 0.590278
vt 0.083333 0.590278
vt 0.083333 0.590278
vn 0.3519 0.8568 -0.3768
vn -0.0126 0.9999 -0.0092
vn 0.3959 0.8719 0.2880
vn 0.3704 0.9118 -0.1769
vn -0.2386 0.0000 0.9711
vn -0.0679 -0.8584 0.5085
vn 0.0429 -0.8677 0.4951
vn 0.0353 0.0000 0.9994
vn 0.2037 -0.9790 -0.0001
vn -0.0144 -0.9998 -0.0099
vn -0.0003 -1.0000 0.0002
vn -0.0140 -0.9998 0.0101
vn -0.0113 -0.9999 0.0082
vn 0.2650 -0.8646 0.4269
vn 0.0631 -0.9790 -0.1936
vn 0.0049 -0.9998 0.0168
vn 0.0043 -0.9999 0.0136
vn 0.4877 -0.8648 -0.1197
vn -0.0126 -0.9999 0.0092
vn -0.3241 -0.8646 -0.3839
vn -0.2498 -0.8567 -0.4513
vn 1.0000 0.0000 -0.0001
vn 0.5614 0.0000 0.8275
vn 0.0631 0.9790 -0.1936
vn -0.0140 0.9998 0.0101
vn -0.0113 0.9999 0.0082
vn -0.3241 0.8646 -0.3839
vn -0.9963 0.0000 0.0857
vn -0.5068 -0.8564 0.0981
vn -0.4644 -0.8649 0.1905
vn -0.9403 0.0000 0.3403
vn 0.2647 -0.8647 -0.4268
vn -0.0115 -0.9999 -0.0082
vn 0.9514 0.0000 -0.3080
vn 0.8091 0.0000 0.5876
vn 0.9514 0.0000 0.3078
vn 0.3705 -0.9118 0.1770
vn 0.3959 -0.8720 -0.2877
vn 0.8090 0.0000 -0.5878
vn -0.6135 0.0000 -0.7896
vn 0.3093 0.0000 -0.9510
vn 0.5869 0.0000 -0.8097
vn 0.2827 -0.9118 -0.2976
vn -0.1515 -0.8719 -0.4655
vn -0.3088 0.0000 -0.9511
vn -0.1605 -0.9792 -0.1244
vn -0.8059 0.0000 -0.5921
vn -0.5917 0.0000 -0.8061
vn -0.1936 -0.9183 -0.3453
vn -0.4909 -0.8712 0.0002
vn -1.0000 0.0000 -0.0002
vn -0.1636 -0.9793 0.1189
vn -0.8090 0.0000 0.5878
vn -0.9495 0.0000 0.3138
vn -0.3884 -0.9182 0.0775
vn -0.1518 -0.8712 0.4668
vn -0.3088 0.0000 0.9511
vn 0.9611 0.0000 0.2759
vn 0.4846 -0.8674 0.1134
vn 0.0688 -0.9792 0.1910
vn 0.3142 0.0000 0.9493
vn 0.0013 0.0000 1.0000
vn -0.0539 -0.9117 0.4073
vn 0.3959 -0.8719 0.2880
vn 0.9606 0.0000 -0.2777
vn 0.3521 -0.8567 0.3770
vn 0.4671 -0.8568 -0.2182
vn 0.0049 -0.9999 0.0148
vn -0.0678 -0.8586 -0.5081
vn 0.0219 -0.9998 -0.0001
vn 0.0179 -0.9998 0.0001
vn 0.0208 -0.9998 0.0005
vn -0.5046 -0.8584 -0.0926
vn 0.0068 -0.9998 -0.0208
vn 0.0054 -0.9998 -0.0170
vn 0.0060 -0.9998 -0.0199
vn -0.2499 -0.8564 0.4516
vn -0.0126 -0.9999 -0.0092
vn 0.2685 -0.9183 0.2908
vn 0.5838 0.0000 0.8119
vn -0.3893 0.0000 0.9211
vn 0.7557 0.0000 0.6549
vn -0.1937 -0.9182 0.3454
vn -0.5918 0.0000 0.8060
vn -0.4040 -0.9117 -0.0746
vn -0.9506 0.0000 -0.3103
vn -0.9973 0.0000 -0.0732
vn -0.2385 0.0000 -0.9711
vn 0.7556 0.0000 -0.6550
vn -0.0538 -0.9118 -0.4071
vn 0.0012 0.0000 -1.0000
vn 0.8564 0.0000 -0.5162
vn -0.3893 0.0000 -0.9211
vn 0.2037 0.9790 -0.0001
vn 0.2650 0.8646 0.4269
vn 0.0068 0.9998 -0.0208
vn -0.5046 0.8584 -0.0926
vn -0.3884 0.9182 0.0775
vn -0.1518 0.8712 0.4668
vn -0.5068 0.8564 0.0981
vn 0.0049 0.9999 0.0148
vn -0.1515 0.8719 -0.4655
vn -0.4040 0.9117 -0.0746
vn -0.0126 0.9999 0.0092
vn 0.3521 0.8567 0.3770
vn 0.3705 0.9118 0.1770
vn 0.3959 0.8720 -0.2877
vn 0.4623 0.8586 0.2215
vn 0.2685 0.9183 0.2908
vn 0.0219 0.9998 -0.0001
vn -0.0678 0.8586 -0.5081
vn -0.1936 0.9183 -0.3453
vn -0.4909 0.8712 0.0002
vn -0.2498 0.8567 -0.4513
vn -0.0538 0.9118 -0.4071
vn -0.2499 0.8564 0.4516
vn -0.0538 0.9117 0.4073
vn -0.0679 0.8584 0.5085
vn -0.1937 0.9182 0.3454
vn 0.4671 0.8568 -0.2182
vn 0.2827 0.9118 -0.2976
vn 0.0208 0.9998 0.0005
vn -0.1605 0.9792 -0.1244
vn 0.0419 0.8674 -0.4959
vn 0.0179 0.9998 0.0001
vn 0.0049 0.9998 0.0168
vn 0.4877 0.8648 -0.1197
vn 0.0043 0.9999 0.0136
vn 0.0419 -0.8674 -0.4959
vn 0.0345 0.0000 -0.9994
vn -0.1636 0.9793 0.1189
vn 0.0429 0.8677 0.4951
vn -0.4644 0.8649 0.1905
vn 0.3519 -0.8568 -0.3768
vn 0.3704 -0.9118 -0.1769
vn -0.0144 0.9998 -0.0099
vn 0.0688 0.9792 0.1910
vn -0.3246 0.8648 0.3830
vn -0.0115 0.9999 -0.0082
vn 0.2647 0.8647 -0.4268
vn 0.5611 0.0000 -0.8277
vn -0.3246 -0.8648 0.3830
vn -0.6141 0.0000 0.7892
vn 0.0060 0.9998 -0.0199
vn 0.0054 0.9998 -0.0170
vn 0.4846 0.8674 0.1134
vn -0.4576 0.8677 -0.1938
vn -0.4576 -0.8677 -0.1938
vn -0.9395 0.0000 -0.3424
vn 0.4623 -0.8586 0.2215
vn 0.8499 0.0000 0.5270
vn -0.0003 1.0000 0.0002
usemtl Mat_UnderWater
s 1
f 103/1/1 99/2/2 21/3/3 37/4/4
f 144/5/5 91/6/6 53/7/7 121/8/8
f 4/9/9 51/10/10 152/11/11
f 4/9/9 48/12/12 66/13/13 68/14/14
f 8/15/15 50/16/16 60/17/17 62/18/18
f 94/19/19 66/13/13 65/20/20 98/21/21
f 111/22/22 4/23/9 68/24/14 135/25/23
f 7/26/24 46/27/25 63/28/26 64/29/27
f 142/30/28 82/31/29 59/32/30 134/33/31
f 51/10/10 4/9/9 74/34/32 70/35/33
f 129/36/34 37/4/4 21/3/3 112/37/35
f 124/38/36 28/39/37 6/40/38 113/41/39
f 136/42/40 65/43/20 8/44/15 114/45/41
f 131/46/42 42/47/43 10/48/44 115/49/45
f 134/33/31 59/32/30 12/50/46 116/51/47
f 128/52/48 36/53/49 14/54/50 117/55/51
f 121/8/8 53/7/7 16/56/52 118/57/53
f 127/58/54 34/59/55 18/60/56 119/61/57
f 140/62/58 77/63/59 20/64/60 120/65/61
f 123/66/62 26/67/63 22/68/64 112/37/35
f 114/45/41 8/44/15 62/69/18 133/70/65
f 96/71/66 94/19/19 6/72/38 28/73/37
f 66/13/13 48/12/12 8/15/15 65/20/20
f 86/74/67 84/75/68 10/76/44 42/77/43
f 60/17/17 50/16/16 12/78/46 59/79/30
f 90/80/69 88/81/70 14/82/50 36/83/49
f 54/84/71 52/85/72 16/86/52 53/87/7
f 108/88/73 106/89/74 18/90/56 34/91/55
f 78/92/75 49/93/76 20/94/60 77/95/59
f 102/96/77 100/97/78 22/98/64 26/99/63
f 119/61/57 18/60/56 24/100/79 122/101/80
f 148/102/81 102/103/77 26/67/63 123/66/62
f 146/104/82 96/105/66 28/39/37 124/38/36
f 117/55/51 14/54/50 30/106/83 125/107/84
f 115/49/45 10/48/44 32/108/85 126/109/86
f 150/110/87 108/111/73 34/59/55 127/58/54
f 143/112/88 90/113/69 36/53/49 128/52/48
f 147/114/89 103/1/1 37/4/4 129/36/34
f 113/41/39 6/40/38 40/115/90 130/116/91
f 141/117/92 86/118/67 42/47/43 131/46/42
f 145/119/93 98/120/21 65/43/20 136/42/40
f 46/27/25 3/121/94 67/122/95 63/28/26
f 105/123/96 107/124/97 33/125/98 17/126/99
f 83/127/100 81/128/101 9/129/102 31/130/103
f 93/131/104 95/132/105 27/133/106 5/134/107
f 109/135/108 105/123/96 17/126/99 23/136/109
f 87/137/110 89/138/111 35/139/112 13/140/113
f 97/141/114 93/131/104 5/134/107 39/142/115
f 99/2/2 101/143/116 25/144/117 21/3/3
f 92/145/118 87/137/110 13/140/113 29/146/119
f 81/128/101 85/147/120 41/148/121 9/129/102
f 44/149/122 11/150/123 55/151/124 2/152/125
f 45/153/126 7/26/24 61/154/127 57/155/128
f 12/78/46 52/85/72 54/84/71 56/156/129
f 116/51/47 12/50/46 56/157/129 132/158/130
f 88/81/70 54/84/71 53/87/7 91/159/6
f 15/160/131 44/149/122 2/152/125 1/161/132
f 11/150/123 45/153/126 57/155/128 58/162/133
f 84/75/68 60/17/17 59/79/30 82/163/29
f 100/97/78 104/164/134 38/165/135 22/98/64
f 47/166/136 19/167/137 71/168/138 69/169/139
f 111/22/22 3/121/94 73/170/140 137/171/141
f 120/65/61 20/64/60 72/172/142 138/173/143
f 20/94/60 51/10/10 70/35/33 72/174/142
f 3/121/94 47/166/136 69/169/139 73/170/140
f 19/167/137 43/175/144 75/176/145 76/177/146
f 43/175/144 15/160/131 79/178/147 75/176/145
f 118/57/53 16/56/52 80/179/148 139/180/149
f 106/89/74 78/92/75 77/95/59 110/181/150
f 16/86/52 49/93/76 78/92/75 80/182/148
f 149/183/151 110/184/150 77/63/59 140/62/58
f 10/76/44 84/75/68 82/163/29 32/185/85
f 57/155/128 61/154/127 85/147/120 81/128/101
f 58/162/133 57/155/128 81/128/101 83/127/100
f 133/70/65 62/69/18 86/118/67 141/117/92
f 62/18/18 60/17/17 84/75/68 86/74/67
f 126/109/86 32/108/85 82/31/29 142/30/28
f 14/82/50 88/81/70 91/159/6 30/186/83
f 1/161/132 2/152/125 87/137/110 92/145/118
f 2/152/125 55/151/124 89/138/111 87/137/110
f 132/158/130 56/157/129 90/113/69 143/112/88
f 56/156/129 54/84/71 88/81/70 90/80/69
f 125/107/84 30/106/83 91/6/6 144/5/5
f 64/29/27 63/28/26 93/131/104 97/141/114
f 63/28/26 67/122/95 95/132/105 93/131/104
f 130/116/91 40/115/90 98/120/21 145/119/93
f 135/25/23 68/24/14 96/105/66 146/104/82
f 68/14/14 66/13/13 94/19/19 96/71/66
f 6/72/38 94/19/19 98/21/21 40/187/90
f 70/35/33 74/34/32 104/164/134 100/97/78
f 69/169/139 71/168/138 101/143/116 99/2/2
f 137/171/141 73/170/140 103/1/1 147/114/89
f 138/173/143 72/172/142 102/103/77 148/102/81
f 72/174/142 70/35/33 100/97/78 102/96/77
f 73/170/140 69/169/139 99/2/2 103/1/1
f 122/101/80 24/100/79 110/184/150 149/183/151
f 18/90/56 106/89/74 110/181/150 24/188/79
f 76/177/146 75/176/145 105/123/96 109/135/108
f 75/176/145 79/178/147 107/124/97 105/123/96
f 139/180/149 80/179/148 108/111/73 150/110/87
f 80/182/148 78/92/75 106/89/74 108/88/73
f 79/178/147 139/180/149 150/110/87 107/124/97
f 23/136/109 122/101/80 149/183/151 109/135/108
f 71/168/138 138/173/143 148/102/81 101/143/116
f 74/189/32 137/171/141 147/114/89 104/190/134
f 67/122/95 135/25/23 146/104/82 95/132/105
f 39/142/115 130/116/91 145/119/93 97/141/114
f 29/146/119 125/107/84 144/5/5 92/145/118
f 55/151/124 132/158/130 143/112/88 89/138/111
f 31/130/103 126/109/86 142/30/28 83/127/100
f 61/154/127 133/70/65 141/117/92 85/147/120
f 109/135/108 149/183/151 140/62/58 76/177/146
f 15/160/131 118/57/53 139/180/149 79/178/147
f 19/167/137 120/65/61 138/173/143 71/168/138
f 4/23/9 111/22/22 137/171/141 74/189/32
f 11/150/123 116/51/47 132/158/130 55/151/124
f 97/141/114 145/119/93 136/42/40 64/29/27
f 85/147/120 141/117/92 131/46/42 41/148/121
f 5/134/107 113/41/39 130/116/91 39/142/115
f 104/190/134 147/114/89 129/36/34 38/191/135
f 89/138/111 143/112/88 128/52/48 35/139/112
f 107/124/97 150/110/87 127/58/54 33/125/98
f 9/129/102 115/49/45 126/109/86 31/130/103
f 13/140/113 117/55/51 125/107/84 29/146/119
f 95/132/105 146/104/82 124/38/36 27/133/106
f 101/143/116 148/102/81 123/66/62 25/144/117
f 17/126/99 119/61/57 122/101/80 23/136/109
f 7/26/24 114/45/41 133/70/65 61/154/127
f 25/144/117 123/66/62 112/37/35 21/3/3
f 76/177/146 140/62/58 120/65/61 19/167/137
f 33/125/98 127/58/54 119/61/57 17/126/99
f 1/161/132 121/8/8 118/57/53 15/160/131
f 35/139/112 128/52/48 117/55/51 13/140/113
f 58/162/133 134/33/31 116/51/47 11/150/123
f 41/148/121 131/46/42 115/49/45 9/129/102
f 64/29/27 136/42/40 114/45/41 7/26/24
f 27/133/106 124/38/36 113/41/39 5/134/107
f 38/191/135 129/36/34 112/37/35 22/68/64
f 83/127/100 142/30/28 134/33/31 58/162/133
f 3/121/94 111/22/22 135/25/23 67/122/95
f 92/145/118 144/5/5 121/8/8 1/161/132
f 19/167/137 47/166/136 151/192/152
f 47/166/136 3/121/94 151/192/152
f 3/121/94 46/27/25 151/192/152
f 46/27/25 7/26/24 151/192/152
f 7/26/24 45/153/126 151/192/152
f 45/153/126 11/150/123 151/192/152
f 11/150/123 44/149/122 151/192/152
f 44/149/122 15/160/131 151/192/152
f 15/160/131 43/175/144 151/192/152
f 43/175/144 19/167/137 151/192/152
f 51/10/10 20/94/60 152/11/11
f 20/94/60 49/93/76 152/11/11
f 49/93/76 16/86/52 152/11/11
f 16/86/52 52/85/72 152/11/11
f 52/85/72 12/78/46 152/11/11
f 12/78/46 50/16/16 152/11/11
f 50/16/16 8/15/15 152/11/11
f 8/15/15 48/12/12 152/11/11
f 48/12/12 4/9/9 152/11/11
