# Blender v2.81 (sub 16) OBJ File: 'Environment Pack.blend'
# www.blender.org
mtllib Starfish_02_LOD2.mtl
o Starfish_02_LOD2_Star.002
v -15.648390 0.302052 30.306755
v -15.707759 0.296572 30.001907
v -14.439323 0.296324 30.001905
v -14.439323 -0.296324 30.001905
v -13.031212 0.300125 28.569599
v -13.031212 -0.300125 28.569599
v -14.828581 0.296323 29.466135
v -14.828581 -0.296323 29.466135
v -15.753209 0.300127 27.685158
v -15.753209 -0.300127 27.685158
v -15.458711 0.296253 29.670719
v -15.458711 -0.296253 29.670719
v -17.415527 0.300189 30.000635
v -17.415527 -0.300189 30.000635
v -15.458858 0.296184 30.333351
v -15.458858 -0.296184 30.333351
v -15.747036 0.300189 32.297115
v -15.747036 -0.300189 32.297115
v -14.828613 0.296255 30.537973
v -14.828613 -0.296255 30.537973
v -13.031216 0.300127 31.431671
v -13.031216 -0.300127 31.431671
v -15.648687 0.301055 32.222786
v -15.648687 -0.301055 32.222786
v -13.154525 0.300919 31.429577
v -13.154525 -0.300919 31.429577
v -13.071303 0.300914 28.686230
v -13.071303 -0.300914 28.686230
v -17.314440 0.301059 30.071196
v -17.314440 -0.301059 30.071196
v -15.789323 0.300919 27.803078
v -15.789323 -0.300919 27.803078
v -15.782906 0.301059 32.179173
v -15.782906 -0.301059 32.179173
v -17.314444 0.301055 29.930069
v -17.314444 -0.301054 29.930069
v -13.071302 0.300912 31.315041
v -13.071302 -0.300912 31.315041
v -13.154523 0.300914 28.571688
v -13.154523 -0.300914 28.571688
v -15.654674 0.300912 27.759323
v -15.654674 -0.300912 27.759323
v -15.143681 0.296571 30.435913
v -15.458990 0.296571 30.001907
v -15.143719 0.296572 29.567780
v -14.633392 0.296572 29.733616
v -14.633386 0.296572 30.270203
v -14.633393 -0.296572 29.733618
v -15.143677 -0.296571 30.435904
v -15.143708 -0.296572 29.567812
v -14.633383 -0.296572 30.270205
v -15.459012 -0.296571 30.001907
v -15.648390 -0.302052 30.306755
v -15.707779 -0.296572 30.001907
v -15.648416 0.302040 29.697020
v -15.648416 -0.302040 29.697020
v -15.230755 0.296573 29.299900
v -15.498388 0.301846 29.458399
v -15.498388 -0.301846 29.458399
v -15.230745 -0.296573 29.299931
v -14.921041 0.301829 29.270779
v -14.921041 -0.301829 29.270779
v -14.404929 0.296573 29.567629
v -14.638495 0.301830 29.362158
v -14.638495 -0.301830 29.362158
v -14.404929 -0.296573 29.567629
v -14.281691 0.301830 29.853258
v -14.281691 -0.301830 29.853258
v -14.404922 0.296573 30.436188
v -14.404919 -0.296573 30.436190
v -14.638489 0.301843 30.641615
v -14.638489 -0.301843 30.641615
v -14.281678 0.301826 30.150555
v -14.281678 -0.301826 30.150555
v -15.220552 0.296572 30.672506
v -14.912246 0.302040 30.710272
v -14.912246 -0.302040 30.710272
v -15.220550 -0.296572 30.672497
v -15.492130 0.302052 30.521828
v -15.492130 -0.302052 30.521828
v -15.640826 0.296568 28.031031
v -15.798490 -0.301048 28.322924
v -15.798490 0.301048 28.322924
v -15.640823 -0.296568 28.031038
v -15.341723 0.301053 28.174480
v -15.341723 -0.301053 28.174480
v -17.134989 0.296562 30.000633
v -17.134993 -0.296562 30.000633
v -16.919329 0.301093 29.788435
v -16.919329 -0.301093 29.788435
v -16.919313 -0.301090 30.212843
v -16.919313 0.301090 30.212843
v -13.325346 0.296568 28.783298
v -13.325346 -0.296568 28.783298
v -13.369398 0.301052 29.112122
v -13.369398 -0.301052 29.112122
v -13.651686 0.301051 28.723585
v -13.651687 -0.301051 28.723585
v -13.325345 0.296568 31.217972
v -13.325345 -0.296568 31.217972
v -13.651703 0.301049 31.277681
v -13.651703 -0.301049 31.277681
v -13.369391 0.301053 30.889160
v -13.369391 -0.301053 30.889160
v -15.660345 0.296562 32.030312
v -15.660344 -0.296562 32.030308
v -15.795519 0.301090 31.759613
v -15.795519 -0.301090 31.759613
v -15.391888 0.301094 31.890778
v -15.391888 -0.301094 31.890778
v -14.291075 0.000000 30.001892
v -12.739655 0.000000 31.643150
v -12.739667 0.000000 28.357777
v -14.782820 0.000000 29.325125
v -15.864243 -0.000000 27.342512
v -15.580150 -0.000000 29.586115
v -17.773382 0.000000 30.000458
v -15.578290 -0.000000 30.420120
v -15.857452 0.000000 32.637508
v -14.785738 0.000000 30.679630
v -15.732745 0.000000 30.441154
v -15.644657 0.000000 32.531799
v -12.974159 0.000000 31.682684
v -12.774545 -0.000000 28.593000
v -17.607090 0.000000 30.170202
v -15.974308 0.000000 27.553322
v -15.967503 0.000000 32.426899
v -17.607090 0.000000 29.830742
v -12.774546 0.000000 31.407944
v -12.974154 -0.000000 28.318260
v -15.651331 -0.000000 27.448380
v -15.732649 -0.000000 29.562571
v -14.819656 0.000000 29.148743
v -15.652136 0.000000 29.419046
v -14.134214 0.000000 29.911837
v -14.648638 -0.000000 29.203789
v -14.134268 -0.000000 30.091864
v -14.648544 -0.000000 30.800003
v -15.646025 -0.000000 30.560516
v -14.810410 -0.000000 30.831919
v -15.292247 -0.000000 27.926123
v -15.984005 0.000000 28.150797
v -17.149601 -0.000000 29.668013
v -17.149651 -0.000000 30.332918
v -13.545363 -0.000000 28.493652
v -13.117867 0.000000 29.082054
v -13.117897 0.000000 30.918854
v -13.545325 0.000000 31.507307
v -15.348518 0.000000 32.146988
v -15.980897 0.000000 31.941568
v -15.002810 0.296420 30.002010
v -15.002810 -0.296420 30.002012
vt 0.250000 0.590278
vt 0.250000 0.590278
vt 0.250000 0.590278
vt 0.250000 0.590278
vt 0.250000 0.590278
vt 0.250000 0.590278
vt 0.250000 0.590278
vt 0.250000 0.590278
vt 0.581759 0.590278
vt 0.581759 0.590278
vt 0.581759 0.590278
vt 0.581759 0.590278
vt 0.581759 0.590278
vt 0.581759 0.590278
vt 0.581759 0.590278
vt 0.581759 0.590278
vt 0.581759 0.590278
vt 0.581759 0.590278
vt 0.581759 0.590278
vt 0.581759 0.590278
vt 0.581759 0.590278
vt 0.250000 0.590278
vt 0.250000 0.590278
vt 0.250000 0.590278
vt 0.250000 0.590278
vt 0.250000 0.590278
vt 0.250000 0.590278
vt 0.250000 0.590278
vt 0.250000 0.590278
vt 0.250000 0.590278
vt 0.250000 0.590278
vt 0.250000 0.590278
vt 0.250000 0.590278
vt 0.581759 0.590278
vt 0.581759 0.590278
vt 0.250000 0.590278
vt 0.250000 0.590278
vt 0.250000 0.590278
vt 0.250000 0.590278
vt 0.250000 0.590278
vt 0.250000 0.590278
vt 0.250000 0.590278
vt 0.250000 0.590278
vt 0.250000 0.590278
vt 0.250000 0.590278
vt 0.250000 0.590278
vt 0.250000 0.590278
vt 0.250000 0.590278
vt 0.250000 0.590278
vt 0.250000 0.590278
vt 0.250000 0.590278
vt 0.250000 0.590278
vt 0.250000 0.590278
vt 0.250000 0.590278
vt 0.250000 0.590278
vt 0.250000 0.590278
vt 0.250000 0.590278
vt 0.250000 0.590278
vt 0.250000 0.590278
vt 0.250000 0.590278
vt 0.250000 0.590278
vt 0.250000 0.590278
vt 0.250000 0.590278
vt 0.250000 0.590278
vt 0.250000 0.590278
vt 0.250000 0.590278
vt 0.250000 0.590278
vt 0.250000 0.590278
vt 0.250000 0.590278
vt 0.250000 0.590278
vt 0.581759 0.590278
vt 0.581759 0.590278
vt 0.581759 0.590278
vt 0.581759 0.590278
vt 0.581759 0.590278
vt 0.581759 0.590278
vt 0.581759 0.590278
vt 0.581759 0.590278
vt 0.581759 0.590278
vt 0.581759 0.590278
vt 0.581759 0.590278
vt 0.581759 0.590278
vt 0.581759 0.590278
vt 0.581759 0.590278
vt 0.581759 0.590278
vt 0.581759 0.590278
vt 0.581759 0.590278
vt 0.581759 0.590278
vt 0.581759 0.590278
vt 0.581759 0.590278
vt 0.581759 0.590278
vt 0.581759 0.590278
vt 0.581759 0.590278
vt 0.581759 0.590278
vt 0.581759 0.590278
vt 0.581759 0.590278
vt 0.581759 0.590278
vt 0.581759 0.590278
vt 0.581759 0.590278
vt 0.250000 0.590278
vt 0.250000 0.590278
vt 0.250000 0.590278
vt 0.250000 0.590278
vt 0.250000 0.590278
vt 0.250000 0.590278
vt 0.250000 0.590278
vt 0.250000 0.590278
vt 0.250000 0.590278
vt 0.250000 0.590278
vt 0.250000 0.590278
vt 0.250000 0.590278
vt 0.250000 0.590278
vt 0.250000 0.590278
vt 0.250000 0.590278
vt 0.250000 0.590278
vt 0.250000 0.590278
vt 0.250000 0.590278
vt 0.250000 0.590278
vt 0.250000 0.590278
vt 0.250000 0.590278
vt 0.250000 0.590278
vt 0.250000 0.590278
vt 0.250000 0.590278
vt 0.250000 0.590278
vt 0.250000 0.590278
vt 0.250000 0.590278
vt 0.250000 0.590278
vt 0.250000 0.590278
vt 0.250000 0.590278
vt 0.250000 0.590278
vt 0.250000 0.590278
vt 0.250000 0.590278
vt 0.250000 0.590278
vt 0.250000 0.590278
vt 0.250000 0.590278
vt 0.250000 0.590278
vt 0.250000 0.590278
vt 0.250000 0.590278
vt 0.250000 0.590278
vt 0.250000 0.590278
vt 0.250000 0.590278
vt 0.250000 0.590278
vt 0.250000 0.590278
vt 0.250000 0.590278
vt 0.250000 0.590278
vt 0.250000 0.590278
vt 0.250000 0.590278
vt 0.250000 0.590278
vt 0.250000 0.590278
vt 0.250000 0.590278
vt 0.250000 0.590278
vt 0.250000 0.590278
vt 0.250000 0.590278
vt 0.250000 0.590278
vt 0.250000 0.590278
vt 0.581759 0.590278
vt 0.250000 0.590278
vt 0.250000 0.590278
vt 0.581759 0.590278
vt 0.250000 0.590278
vt 0.250000 0.590278
vt 0.250000 0.590278
vt 0.581759 0.590278
vt 0.581759 0.590278
vt 0.581759 0.590278
vt 0.250000 0.590278
vt 0.250000 0.590278
vt 0.250000 0.590278
vt 0.250000 0.590278
vt 0.250000 0.590278
vt 0.250000 0.590278
vt 0.250000 0.590278
vt 0.250000 0.590278
vt 0.581759 0.590278
vt 0.250000 0.590278
vt 0.250000 0.590278
vt 0.250000 0.590278
vt 0.250000 0.590278
vt 0.250000 0.590278
vt 0.250000 0.590278
vt 0.581759 0.590278
vt 0.581759 0.590278
vt 0.250000 0.590278
vt 0.250000 0.590278
vt 0.581759 0.590278
vt 0.581759 0.590278
vt 0.581759 0.590278
vt 0.581759 0.590278
vt 0.250000 0.590278
vt 0.250000 0.590278
vt 0.250000 0.590278
vt 0.250000 0.590278
vn 0.3811 0.8383 -0.3899
vn -0.0056 1.0000 -0.0041
vn 0.3907 0.8755 0.2842
vn 0.4221 0.8794 -0.2199
vn -0.2488 0.0000 0.9685
vn -0.0879 -0.8405 0.5346
vn -0.0156 -0.8418 0.5396
vn -0.0476 0.0000 0.9988
vn 0.2366 -0.9716 0.0000
vn -0.0049 -1.0000 -0.0034
vn -0.0000 -1.0000 0.0000
vn -0.0048 -1.0000 0.0035
vn -0.0041 -1.0000 0.0030
vn 0.3284 -0.8415 0.4289
vn 0.0732 -0.9716 -0.2250
vn 0.0018 -1.0000 0.0057
vn 0.0016 -1.0000 0.0049
vn 0.5094 -0.8416 -0.1792
vn -0.0056 -1.0000 0.0041
vn -0.3063 -0.8415 -0.4449
vn -0.2524 -0.8384 -0.4830
vn 1.0000 0.0000 -0.0000
vn 0.6186 0.0000 0.7857
vn 0.0732 0.9716 -0.2250
vn -0.0048 1.0000 0.0035
vn -0.0041 1.0000 0.0030
vn -0.3063 0.8415 -0.4449
vn -0.9969 0.0000 0.0778
vn -0.5373 -0.8386 0.0901
vn -0.5173 -0.8423 0.1512
vn -0.9633 0.0000 0.2683
vn 0.3280 -0.8416 -0.4290
vn -0.0041 -1.0000 -0.0030
vn 0.9382 0.0000 -0.3462
vn 0.8091 0.0000 0.5876
vn 0.9382 0.0000 0.3460
vn 0.4223 -0.8793 0.2200
vn 0.3907 -0.8756 -0.2839
vn 0.8090 0.0000 -0.5878
vn -0.5560 0.0000 -0.8311
vn 0.3095 0.0000 -0.9509
vn 0.6191 0.0000 -0.7853
vn 0.3396 -0.8794 -0.3335
vn -0.1495 -0.8755 -0.4594
vn -0.3088 0.0000 -0.9511
vn -0.1897 -0.9716 -0.1412
vn -0.7962 0.0000 -0.6050
vn -0.5584 0.0000 -0.8295
vn -0.2139 -0.8822 -0.4195
vn -0.4846 -0.8747 0.0002
vn -1.0000 0.0000 -0.0001
vn -0.1915 -0.9716 0.1392
vn -0.8090 0.0000 0.5878
vn -0.9615 0.0000 0.2748
vn -0.4653 -0.8820 0.0739
vn -0.1499 -0.8747 0.4609
vn -0.3089 0.0000 0.9511
vn 0.9369 0.0000 0.3497
vn 0.5105 -0.8409 0.1792
vn 0.0757 -0.9716 0.2241
vn 0.3298 0.0000 0.9440
vn -0.0392 0.0000 0.9992
vn -0.0788 -0.8792 0.4699
vn 0.3907 -0.8755 0.2842
vn 0.9388 0.0000 -0.3444
vn 0.3814 -0.8384 0.3893
vn 0.4885 -0.8383 -0.2419
vn 0.0021 -1.0000 0.0066
vn -0.0872 -0.8404 -0.5349
vn 0.0092 -0.9999 0.0000
vn 0.0063 -1.0000 0.0000
vn 0.0071 -1.0000 0.0001
vn -0.5356 -0.8405 -0.0816
vn 0.0028 -0.9999 -0.0088
vn 0.0019 -1.0000 -0.0059
vn 0.0021 -1.0000 -0.0067
vn -0.2517 -0.8385 0.4832
vn -0.0056 -1.0000 -0.0041
vn 0.3328 -0.8822 0.3331
vn 0.6164 0.0000 0.7874
vn -0.3820 0.0000 0.9241
vn 0.7604 0.0000 0.6494
vn -0.2140 -0.8820 0.4197
vn -0.5585 0.0000 0.8295
vn -0.4712 -0.8792 -0.0702
vn -0.9624 0.0000 -0.2715
vn -0.9980 0.0000 -0.0626
vn -0.2481 0.0000 -0.9687
vn 0.7600 0.0000 -0.6499
vn -0.0788 -0.8794 -0.4696
vn -0.0392 0.0000 -0.9992
vn 0.8529 0.0000 -0.5220
vn -0.3826 0.0000 -0.9239
vn 0.2366 0.9716 0.0000
vn 0.3284 0.8415 0.4289
vn 0.0028 0.9999 -0.0088
vn -0.5356 0.8405 -0.0816
vn -0.4653 0.8820 0.0739
vn -0.1499 0.8747 0.4609
vn -0.5373 0.8386 0.0901
vn 0.0021 1.0000 0.0066
vn -0.1495 0.8755 -0.4594
vn -0.4712 0.8792 -0.0702
vn -0.0056 1.0000 0.0041
vn 0.3814 0.8384 0.3893
vn 0.4223 0.8793 0.2200
vn 0.3907 0.8756 -0.2839
vn 0.4818 0.8404 0.2482
vn 0.3328 0.8822 0.3331
vn 0.0092 0.9999 0.0000
vn -0.0872 0.8404 -0.5349
vn -0.2139 0.8822 -0.4195
vn -0.4846 0.8747 0.0002
vn -0.2524 0.8384 -0.4830
vn -0.0788 0.8794 -0.4696
vn -0.2517 0.8385 0.4832
vn -0.0788 0.8792 0.4699
vn -0.0879 0.8405 0.5346
vn -0.2140 0.8820 0.4197
vn 0.4885 0.8383 -0.2419
vn 0.3396 0.8794 -0.3335
vn 0.0071 1.0000 0.0001
vn -0.1897 0.9716 -0.1412
vn -0.0128 0.8410 -0.5409
vn 0.0063 1.0000 0.0000
vn 0.0018 1.0000 0.0057
vn 0.5094 0.8416 -0.1792
vn 0.0016 1.0000 0.0049
vn -0.0128 -0.8410 -0.5409
vn -0.0432 0.0000 -0.9991
vn -0.1915 0.9716 0.1392
vn -0.0156 0.8418 0.5396
vn -0.5173 0.8423 0.1512
vn 0.3811 -0.8383 -0.3899
vn 0.4221 -0.8794 -0.2199
vn -0.0049 1.0000 -0.0034
vn 0.0757 0.9716 0.2241
vn -0.3036 0.8423 0.4453
vn -0.0041 1.0000 -0.0030
vn 0.3280 0.8416 -0.4290
vn 0.6178 0.0000 -0.7863
vn -0.3036 -0.8423 0.4453
vn -0.5528 0.0000 0.8333
vn 0.0021 1.0000 -0.0067
vn 0.0019 1.0000 -0.0059
vn 0.5105 0.8409 0.1792
vn -0.5180 0.8418 -0.1519
vn -0.5180 -0.8418 -0.1519
vn -0.9647 0.0000 -0.2634
vn 0.4818 -0.8404 0.2482
vn 0.8446 0.0000 0.5354
vn -0.0000 1.0000 0.0000
usemtl Mat_UnderWater
s 1
f 103/1/1 99/2/2 21/3/3 37/4/4
f 144/5/5 91/6/6 53/7/7 121/8/8
f 4/9/9 51/10/10 152/11/11
f 4/9/9 48/12/12 66/13/13 68/14/14
f 8/15/15 50/16/16 60/17/17 62/18/18
f 94/19/19 66/13/13 65/20/20 98/21/21
f 111/22/22 4/23/9 68/24/14 135/25/23
f 7/26/24 46/27/25 63/28/26 64/29/27
f 142/30/28 82/31/29 59/32/30 134/33/31
f 51/10/10 4/9/9 74/34/32 70/35/33
f 129/36/34 37/4/4 21/3/3 112/37/35
f 124/38/36 28/39/37 6/40/38 113/41/39
f 136/42/40 65/43/20 8/44/15 114/45/41
f 131/46/42 42/47/43 10/48/44 115/49/45
f 134/33/31 59/32/30 12/50/46 116/51/47
f 128/52/48 36/53/49 14/54/50 117/55/51
f 121/8/8 53/7/7 16/56/52 118/57/53
f 127/58/54 34/59/55 18/60/56 119/61/57
f 140/62/58 77/63/59 20/64/60 120/65/61
f 123/66/62 26/67/63 22/68/64 112/37/35
f 114/45/41 8/44/15 62/69/18 133/70/65
f 96/71/66 94/19/19 6/72/38 28/73/37
f 66/13/13 48/12/12 8/15/15 65/20/20
f 86/74/67 84/75/68 10/76/44 42/77/43
f 60/17/17 50/16/16 12/78/46 59/79/30
f 90/80/69 88/81/70 14/82/50 36/83/49
f 54/84/71 52/85/72 16/86/52 53/87/7
f 108/88/73 106/89/74 18/90/56 34/91/55
f 78/92/75 49/93/76 20/94/60 77/95/59
f 102/96/77 100/97/78 22/98/64 26/99/63
f 119/61/57 18/60/56 24/100/79 122/101/80
f 148/102/81 102/103/77 26/67/63 123/66/62
f 146/104/82 96/105/66 28/39/37 124/38/36
f 117/55/51 14/54/50 30/106/83 125/107/84
f 115/49/45 10/48/44 32/108/85 126/109/86
f 150/110/87 108/111/73 34/59/55 127/58/54
f 143/112/88 90/113/69 36/53/49 128/52/48
f 147/114/89 103/1/1 37/4/4 129/36/34
f 113/41/39 6/40/38 40/115/90 130/116/91
f 141/117/92 86/118/67 42/47/43 131/46/42
f 145/119/93 98/120/21 65/43/20 136/42/40
f 46/27/25 3/121/94 67/122/95 63/28/26
f 105/123/96 107/124/97 33/125/98 17/126/99
f 83/127/100 81/128/101 9/129/102 31/130/103
f 93/131/104 95/132/105 27/133/106 5/134/107
f 109/135/108 105/123/96 17/126/99 23/136/109
f 87/137/110 89/138/111 35/139/112 13/140/113
f 97/141/114 93/131/104 5/134/107 39/142/115
f 99/2/2 101/143/116 25/144/117 21/3/3
f 92/145/118 87/137/110 13/140/113 29/146/119
f 81/128/101 85/147/120 41/148/121 9/129/102
f 44/149/122 11/150/123 55/151/124 2/152/125
f 45/153/126 7/26/24 61/154/127 57/155/128
f 12/78/46 52/85/72 54/84/71 56/156/129
f 116/51/47 12/50/46 56/157/129 132/158/130
f 88/81/70 54/84/71 53/87/7 91/159/6
f 15/160/131 44/149/122 2/152/125 1/161/132
f 11/150/123 45/153/126 57/155/128 58/162/133
f 84/75/68 60/17/17 59/79/30 82/163/29
f 100/97/78 104/164/134 38/165/135 22/98/64
f 47/166/136 19/167/137 71/168/138 69/169/139
f 111/22/22 3/121/94 73/170/140 137/171/141
f 120/65/61 20/64/60 72/172/142 138/173/143
f 20/94/60 51/10/10 70/35/33 72/174/142
f 3/121/94 47/166/136 69/169/139 73/170/140
f 19/167/137 43/175/144 75/176/145 76/177/146
f 43/175/144 15/160/131 79/178/147 75/176/145
f 118/57/53 16/56/52 80/179/148 139/180/149
f 106/89/74 78/92/75 77/95/59 110/181/150
f 16/86/52 49/93/76 78/92/75 80/182/148
f 149/183/151 110/184/150 77/63/59 140/62/58
f 10/76/44 84/75/68 82/163/29 32/185/85
f 57/155/128 61/154/127 85/147/120 81/128/101
f 58/162/133 57/155/128 81/128/101 83/127/100
f 133/70/65 62/69/18 86/118/67 141/117/92
f 62/18/18 60/17/17 84/75/68 86/74/67
f 126/109/86 32/108/85 82/31/29 142/30/28
f 14/82/50 88/81/70 91/159/6 30/186/83
f 1/161/132 2/152/125 87/137/110 92/145/118
f 2/152/125 55/151/124 89/138/111 87/137/110
f 132/158/130 56/157/129 90/113/69 143/112/88
f 56/156/129 54/84/71 88/81/70 90/80/69
f 125/107/84 30/106/83 91/6/6 144/5/5
f 64/29/27 63/28/26 93/131/104 97/141/114
f 63/28/26 67/122/95 95/132/105 93/131/104
f 130/116/91 40/115/90 98/120/21 145/119/93
f 135/25/23 68/24/14 96/105/66 146/104/82
f 68/14/14 66/13/13 94/19/19 96/71/66
f 6/72/38 94/19/19 98/21/21 40/187/90
f 70/35/33 74/34/32 104/164/134 100/97/78
f 69/169/139 71/168/138 101/143/116 99/2/2
f 137/171/141 73/170/140 103/1/1 147/114/89
f 138/173/143 72/172/142 102/103/77 148/102/81
f 72/174/142 70/35/33 100/97/78 102/96/77
f 73/170/140 69/169/139 99/2/2 103/1/1
f 122/101/80 24/100/79 110/184/150 149/183/151
f 18/90/56 106/89/74 110/181/150 24/188/79
f 76/177/146 75/176/145 105/123/96 109/135/108
f 75/176/145 79/178/147 107/124/97 105/123/96
f 139/180/149 80/179/148 108/111/73 150/110/87
f 80/182/148 78/92/75 106/89/74 108/88/73
f 79/178/147 139/180/149 150/110/87 107/124/97
f 23/136/109 122/101/80 149/183/151 109/135/108
f 71/168/138 138/173/143 148/102/81 101/143/116
f 74/189/32 137/171/141 147/114/89 104/190/134
f 67/122/95 135/25/23 146/104/82 95/132/105
f 39/142/115 130/116/91 145/119/93 97/141/114
f 29/146/119 125/107/84 144/5/5 92/145/118
f 55/151/124 132/158/130 143/112/88 89/138/111
f 31/130/103 126/109/86 142/30/28 83/127/100
f 61/154/127 133/70/65 141/117/92 85/147/120
f 109/135/108 149/183/151 140/62/58 76/177/146
f 15/160/131 118/57/53 139/180/149 79/178/147
f 19/167/137 120/65/61 138/173/143 71/168/138
f 4/23/9 111/22/22 137/171/141 74/189/32
f 11/150/123 116/51/47 132/158/130 55/151/124
f 97/141/114 145/119/93 136/42/40 64/29/27
f 85/147/120 141/117/92 131/46/42 41/148/121
f 5/134/107 113/41/39 130/116/91 39/142/115
f 104/190/134 147/114/89 129/36/34 38/191/135
f 89/138/111 143/112/88 128/52/48 35/139/112
f 107/124/97 150/110/87 127/58/54 33/125/98
f 9/129/102 115/49/45 126/109/86 31/130/103
f 13/140/113 117/55/51 125/107/84 29/146/119
f 95/132/105 146/104/82 124/38/36 27/133/106
f 101/143/116 148/102/81 123/66/62 25/144/117
f 17/126/99 119/61/57 122/101/80 23/136/109
f 7/26/24 114/45/41 133/70/65 61/154/127
f 25/144/117 123/66/62 112/37/35 21/3/3
f 76/177/146 140/62/58 120/65/61 19/167/137
f 33/125/98 127/58/54 119/61/57 17/126/99
f 1/161/132 121/8/8 118/57/53 15/160/131
f 35/139/112 128/52/48 117/55/51 13/140/113
f 58/162/133 134/33/31 116/51/47 11/150/123
f 41/148/121 131/46/42 115/49/45 9/129/102
f 64/29/27 136/42/40 114/45/41 7/26/24
f 27/133/106 124/38/36 113/41/39 5/134/107
f 38/191/135 129/36/34 112/37/35 22/68/64
f 83/127/100 142/30/28 134/33/31 58/162/133
f 3/121/94 111/22/22 135/25/23 67/122/95
f 92/145/118 144/5/5 121/8/8 1/161/132
f 19/167/137 47/166/136 151/192/152
f 47/166/136 3/121/94 151/192/152
f 3/121/94 46/27/25 151/192/152
f 46/27/25 7/26/24 151/192/152
f 7/26/24 45/153/126 151/192/152
f 45/153/126 11/150/123 151/192/152
f 11/150/123 44/149/122 151/192/152
f 44/149/122 15/160/131 151/192/152
f 15/160/131 43/175/144 151/192/152
f 43/175/144 19/167/137 151/192/152
f 51/10/10 20/94/60 152/11/11
f 20/94/60 49/93/76 152/11/11
f 49/93/76 16/86/52 152/11/11
f 16/86/52 52/85/72 152/11/11
f 52/85/72 12/78/46 152/11/11
f 12/78/46 50/16/16 152/11/11
f 50/16/16 8/15/15 152/11/11
f 8/15/15 48/12/12 152/11/11
f 48/12/12 4/9/9 152/11/11
