# Blender v2.81 (sub 16) OBJ File: 'Environment Pack.blend'
# www.blender.org
mtllib Rock_A_02_LOD1.mtl
o Rock_A_02_LOD1_Cube.539
v 14.125439 -0.132632 18.958990
v 13.883983 1.524377 18.902729
v 15.854196 -0.160198 19.140556
v 16.335327 1.432596 18.952408
v 14.194379 -0.066630 20.982452
v 13.934931 1.529951 21.024208
v 16.191677 -0.215078 21.112228
v 15.997630 1.309011 21.024303
v 15.008648 -0.078661 18.898565
v 13.840799 0.285870 18.671240
v 14.927808 1.656615 18.907497
v 16.355694 0.249048 18.868673
v 16.169498 -0.025444 20.061359
v 16.402246 1.690665 20.104555
v 16.328800 0.130749 21.354548
v 15.083688 -0.051866 21.307724
v 14.954878 1.337545 21.221596
v 13.819547 0.371444 21.321371
v 13.972656 -0.150745 19.825058
v 13.759815 1.738994 20.037205
v 15.108128 2.197738 20.207077
v 15.133874 -0.182798 19.849840
v 13.365253 0.393730 19.946512
v 15.049421 0.168658 21.899584
v 16.771677 0.417379 20.220869
v 15.044005 0.253484 18.350801
v 14.537053 -0.112255 18.907263
v 13.793142 1.037151 18.684858
v 15.724318 1.578274 18.859730
v 16.113224 -0.092921 18.962805
v 16.003170 -0.056408 19.504330
v 16.135050 1.501136 20.599968
v 16.338299 -0.124834 21.273569
v 15.776012 -0.084034 21.262453
v 14.374149 1.443329 21.179346
v 14.021532 0.044791 21.218674
v 14.023486 -0.171567 20.461748
v 13.805686 1.601870 19.308130
v 15.457905 -0.152966 18.985588
v 13.986703 -0.121687 18.770857
v 14.367467 1.684546 18.921026
v 16.394730 0.919040 18.810152
v 16.232693 -0.188599 20.684286
v 16.516079 1.659879 19.506903
v 16.108177 0.810959 21.297117
v 14.555935 0.007603 21.225510
v 15.603605 1.361676 21.105858
v 13.795280 1.066760 21.159313
v 13.969207 -0.106883 19.279221
v 13.865599 1.673894 20.722628
v 14.373839 2.075274 20.154245
v 15.845404 2.163212 20.103914
v 15.031835 1.839536 20.795021
v 15.075466 2.070389 19.569334
v 14.630157 -0.161368 19.859905
v 15.581691 -0.050868 19.991783
v 14.981206 -0.106455 19.378546
v 15.161632 -0.160501 20.523802
v 13.505960 0.365513 19.205898
v 13.438580 0.287276 20.649418
v 13.454349 -0.117131 19.821795
v 13.501594 1.169321 20.052969
v 14.403358 0.326396 21.814402
v 15.723755 0.063189 21.733559
v 15.058599 0.075100 21.837811
v 14.989589 0.737521 21.601397
v 16.647831 0.287291 20.816427
v 16.732983 0.392055 19.465332
v 16.618271 0.133968 20.111195
v 16.741125 1.037886 20.182215
v 15.774391 0.205441 18.484505
v 14.372802 0.206853 18.397364
v 15.128876 -0.082918 18.528946
v 14.912985 0.976411 18.424728
v 14.303011 1.023772 18.462416
v 14.562152 -0.146018 18.577888
v 15.672790 -0.133903 18.614389
v 16.792961 1.084886 19.443527
v 16.446634 0.053232 19.431959
v 16.605650 -0.000195 20.755283
v 15.595557 0.701344 21.542738
v 15.763082 -0.024863 21.644075
v 14.521042 0.157730 21.745193
v 13.550625 1.083158 20.712671
v 13.592901 -0.136187 20.528046
v 13.577154 -0.085721 19.158438
v 15.742204 -0.131656 20.636839
v 15.425098 -0.062651 19.496378
v 14.505009 -0.102648 19.352409
v 15.874496 2.019394 19.529266
v 15.677111 1.847127 20.625233
v 14.452137 1.830927 20.802677
v 14.397722 1.974080 19.472059
v 14.589675 -0.125806 20.512701
v 13.588227 1.059135 19.263941
v 14.333599 0.905803 21.509283
v 16.435062 0.899930 20.769697
v 15.695803 0.893896 18.496939
vt 0.916667 0.072917
vt 0.916667 0.072917
vt 0.916667 0.072917
vt 0.916667 0.072917
vt 0.916667 0.072917
vt 0.916667 0.072917
vt 0.916667 0.072917
vt 0.916667 0.072917
vt 0.916667 0.072917
vt 0.916667 0.072917
vt 0.916667 0.072917
vt 0.916667 0.072917
vt 0.916667 0.072917
vt 0.916667 0.072917
vt 0.916667 0.072917
vt 0.916667 0.072917
vt 0.916667 0.072917
vt 0.916667 0.072917
vt 0.916667 0.072917
vt 0.916667 0.072917
vt 0.916667 0.072917
vt 0.916667 0.072917
vt 0.916667 0.072917
vt 0.916667 0.072917
vt 0.916667 0.072917
vt 0.916667 0.072917
vt 0.916667 0.072917
vt 0.916667 0.072917
vt 0.916667 0.072917
vt 0.916667 0.072917
vt 0.916667 0.072917
vt 0.916667 0.072917
vt 0.916667 0.072917
vt 0.916667 0.072917
vt 0.916667 0.072917
vt 0.916667 0.072917
vt 0.916667 0.072917
vt 0.916667 0.072917
vt 0.916667 0.072917
vt 0.916667 0.072917
vt 0.916667 0.072917
vt 0.916667 0.072917
vt 0.916667 0.072917
vt 0.916667 0.072917
vt 0.916667 0.072917
vt 0.916667 0.072917
vt 0.916667 0.072917
vt 0.916667 0.072917
vt 0.916667 0.072917
vt 0.916667 0.072917
vt 0.916667 0.072917
vt 0.916667 0.072917
vt 0.916667 0.072917
vt 0.916667 0.072917
vt 0.916667 0.072917
vt 0.916667 0.072917
vt 0.916667 0.072917
vt 0.916667 0.072917
vt 0.916667 0.072917
vt 0.916667 0.072917
vt 0.916667 0.072917
vt 0.916667 0.072917
vt 0.916667 0.072917
vt 0.916667 0.072917
vt 0.916667 0.072917
vt 0.916667 0.072917
vt 0.916667 0.072917
vt 0.916667 0.072917
vt 0.916667 0.072917
vt 0.916667 0.072917
vt 0.916667 0.072917
vt 0.916667 0.072917
vt 0.916667 0.072917
vt 0.916667 0.072917
vt 0.916667 0.072917
vt 0.916667 0.072917
vt 0.916667 0.072917
vt 0.916667 0.072917
vt 0.916667 0.072917
vt 0.916667 0.072917
vt 0.916667 0.072917
vt 0.916667 0.072917
vt 0.916667 0.072917
vt 0.916667 0.072917
vt 0.916667 0.072917
vt 0.916667 0.072917
vt 0.916667 0.072917
vt 0.916667 0.072917
vt 0.916667 0.072917
vt 0.916667 0.072917
vt 0.916667 0.072917
vt 0.916667 0.072917
vt 0.916667 0.072917
vt 0.916667 0.072917
vt 0.916667 0.072917
vt 0.916667 0.072917
vt 0.916667 0.072917
vt 0.916667 0.072917
vn 0.1865 0.6581 -0.7295
vn 0.5293 0.5260 -0.6656
vn 0.6464 0.1462 -0.7488
vn 0.2496 0.2417 -0.9377
vn 0.5975 0.5804 0.5532
vn 0.5021 0.5754 0.6456
vn 0.5537 0.4078 0.7259
vn 0.7951 0.3625 0.4862
vn -0.1241 0.6076 0.7844
vn -0.4872 0.5894 0.6444
vn -0.6805 0.3078 0.6649
vn -0.2510 0.4235 0.8704
vn -0.7107 0.6549 -0.2567
vn -0.5721 0.6108 -0.5473
vn -0.6714 0.2492 -0.6980
vn -0.9367 0.2344 -0.2601
vn -0.0786 -0.9694 0.2325
vn -0.0238 -0.9687 0.2468
vn -0.0254 -0.9938 0.1079
vn -0.0128 -0.9950 0.0993
vn -0.1663 0.7572 -0.6316
vn -0.2470 0.9192 -0.3066
vn -0.2891 0.9525 0.0958
vn -0.7163 0.6977 0.0115
vn -0.6166 0.6925 0.3745
vn -0.1592 0.8286 0.5366
vn 0.3387 0.9217 0.1890
vn -0.0128 0.9838 0.1785
vn 0.0484 0.7750 0.6300
vn 0.2967 0.7357 0.6088
vn 0.0215 0.7220 -0.6915
vn -0.0225 0.9355 -0.3527
vn 0.2765 0.8997 -0.3377
vn -0.0128 -0.9990 -0.0429
vn -0.0248 -0.9987 -0.0444
vn -0.0303 -0.9992 -0.0245
vn 0.0101 -0.9987 -0.0485
vn 0.0992 -0.9926 -0.0705
vn 0.0948 -0.9925 -0.0769
vn 0.0250 -0.9984 -0.0504
vn 0.0648 -0.9975 0.0268
vn -0.0804 -0.9827 0.1669
vn -0.0857 -0.9801 0.1791
vn 0.0117 -0.9985 0.0530
vn -0.0199 -0.9992 -0.0340
vn -0.9389 -0.0343 -0.3424
vn -0.6601 -0.1545 -0.7350
vn -0.3911 -0.7978 -0.4588
vn -0.6599 -0.6834 -0.3121
vn -0.9298 -0.1642 0.3293
vn -0.9995 -0.0200 -0.0233
vn -0.6914 -0.7199 -0.0601
vn -0.5707 -0.7856 0.2391
vn -0.9544 0.2984 -0.0026
vn -0.9170 0.2636 0.2995
vn -0.3784 -0.0598 0.9237
vn -0.7264 -0.1614 0.6680
vn -0.4002 -0.7848 0.4731
vn -0.2905 -0.7530 0.5904
vn 0.3142 -0.1380 0.9392
vn 0.0124 -0.0922 0.9956
vn -0.0785 -0.8091 0.5824
vn 0.2048 -0.7654 0.6100
vn 0.2292 0.6103 0.7582
vn 0.0782 0.5948 0.8000
vn 0.0823 0.4834 0.8715
vn 0.2590 0.4290 0.8654
vn 0.9290 0.0038 0.3699
vn 0.6977 0.0053 0.7164
vn 0.5507 -0.6971 0.4590
vn 0.7853 -0.6128 0.0878
vn 0.9202 -0.3088 -0.2406
vn 0.9822 -0.1494 0.1136
vn 0.6933 -0.7163 -0.0792
vn 0.5900 -0.7990 -0.1164
vn 0.7197 0.6519 -0.2389
vn 0.7155 0.6410 0.2777
vn 0.9220 0.2832 0.2639
vn 0.9514 0.1939 -0.2389
vn 0.3523 -0.2308 -0.9069
vn 0.7030 -0.3258 -0.6321
vn 0.4635 -0.8329 -0.3022
vn 0.1997 -0.8101 -0.5512
vn -0.2494 -0.2271 -0.9414
vn 0.0444 -0.1753 -0.9835
vn 0.0219 -0.8161 -0.5775
vn -0.0706 -0.8655 -0.4959
vn 0.0285 0.3238 -0.9457
vn -0.2011 0.3062 -0.9305
vn -0.0001 -0.9998 0.0157
vn 0.0385 -0.9986 0.0363
vn -0.0141 -0.9991 0.0406
vn 0.0971 -0.9912 0.0900
vn -0.0349 -0.9991 0.0216
vn 0.1894 -0.9770 -0.0975
vn 0.1502 -0.9846 0.0893
vn 0.0890 -0.9909 0.1006
vn 0.1840 -0.9778 -0.1007
usemtl Mat_UnderWater
s 1
f 29/1/1 4/2/2 42/3/3 98/4/4
f 32/5/5 8/6/6 45/7/7 97/8/8
f 35/9/9 6/10/10 48/11/11 96/12/12
f 38/13/13 2/14/14 28/15/15 95/16/16
f 46/17/17 5/18/18 37/19/19 94/20/20
f 41/21/21 2/14/14 38/13/13 93/22/22
f 51/23/23 20/24/24 50/25/25 92/26/26
f 52/27/27 21/28/28 53/29/29 91/30/30
f 29/1/1 11/31/31 54/32/32 90/33/33
f 55/34/34 19/35/35 49/36/36 89/37/37
f 56/38/38 22/39/39 57/40/40 88/41/41
f 34/42/42 16/43/43 58/44/44 87/45/45
f 59/46/46 10/47/47 40/48/48 86/49/49
f 60/50/50 23/51/51 61/52/52 85/53/53
f 50/25/25 20/24/24 62/54/54 84/55/55
f 63/56/56 18/57/57 36/58/58 83/59/59
f 64/60/60 24/61/61 65/62/62 82/63/63
f 47/64/64 17/65/65 66/66/66 81/67/67
f 67/68/68 15/69/69 33/70/70 80/71/71
f 68/72/72 25/73/73 69/74/74 79/75/75
f 44/76/76 14/77/77 70/78/78 78/79/79
f 71/80/80 12/81/81 30/82/82 77/83/83
f 72/84/84 26/85/85 73/86/86 76/87/87
f 41/21/21 11/31/31 74/88/88 75/89/89
f 75/89/89 74/88/88 26/85/85 72/84/84
f 10/47/47 28/15/15 75/89/89 72/84/84
f 28/15/15 2/14/14 41/21/21 75/89/89
f 76/87/87 73/86/86 9/90/90 27/91/91
f 1/92/92 40/48/48 76/87/87 27/91/91
f 40/48/48 10/47/47 72/84/84 76/87/87
f 77/83/83 30/82/82 3/93/93 39/94/94
f 73/86/86 77/83/83 39/94/94 9/90/90
f 26/85/85 71/80/80 77/83/83 73/86/86
f 78/79/79 70/78/78 25/73/73 68/72/72
f 42/3/3 78/79/79 68/72/72 12/81/81
f 4/2/2 44/76/76 78/79/79 42/3/3
f 79/75/75 69/74/74 13/95/95 31/96/96
f 30/82/82 79/75/75 31/96/96 3/93/93
f 12/81/81 68/72/72 79/75/75 30/82/82
f 80/71/71 33/70/70 7/97/97 43/98/98
f 69/74/74 80/71/71 43/98/98 13/95/95
f 25/73/73 67/68/68 80/71/71 69/74/74
f 81/67/67 66/66/66 24/61/61 64/60/60
f 45/7/7 81/67/67 64/60/60 15/69/69
f 8/6/6 47/64/64 81/67/67 45/7/7
f 82/63/63 65/62/62 16/43/43 34/42/42
f 33/70/70 82/63/63 34/42/42 7/97/97
f 15/69/69 64/60/60 82/63/63 33/70/70
f 83/59/59 36/58/58 5/18/18 46/17/17
f 65/62/62 83/59/59 46/17/17 16/43/43
f 24/61/61 63/56/56 83/59/59 65/62/62
f 84/55/55 62/54/54 23/51/51 60/50/50
f 48/11/11 84/55/55 60/50/50 18/57/57
f 6/10/10 50/25/25 84/55/55 48/11/11
f 85/53/53 61/52/52 19/35/35 37/19/19
f 36/58/58 85/53/53 37/19/19 5/18/18
f 18/57/57 60/50/50 85/53/53 36/58/58
f 86/49/49 40/48/48 1/92/92 49/36/36
f 61/52/52 86/49/49 49/36/36 19/35/35
f 23/51/51 59/46/46 86/49/49 61/52/52
f 87/45/45 58/44/44 22/39/39 56/38/38
f 43/98/98 87/45/45 56/38/38 13/95/95
f 7/97/97 34/42/42 87/45/45 43/98/98
f 88/41/41 57/40/40 9/90/90 39/94/94
f 31/96/96 88/41/41 39/94/94 3/93/93
f 13/95/95 56/38/38 88/41/41 31/96/96
f 89/37/37 49/36/36 1/92/92 27/91/91
f 57/40/40 89/37/37 27/91/91 9/90/90
f 22/39/39 55/34/34 89/37/37 57/40/40
f 90/33/33 54/32/32 21/28/28 52/27/27
f 44/76/76 90/33/33 52/27/27 14/77/77
f 4/2/2 29/1/1 90/33/33 44/76/76
f 91/30/30 53/29/29 17/65/65 47/64/64
f 32/5/5 91/30/30 47/64/64 8/6/6
f 14/77/77 52/27/27 91/30/30 32/5/5
f 92/26/26 50/25/25 6/10/10 35/9/9
f 53/29/29 92/26/26 35/9/9 17/65/65
f 21/28/28 51/23/23 92/26/26 53/29/29
f 93/22/22 38/13/13 20/24/24 51/23/23
f 54/32/32 93/22/22 51/23/23 21/28/28
f 11/31/31 41/21/21 93/22/22 54/32/32
f 94/20/20 37/19/19 19/35/35 55/34/34
f 58/44/44 94/20/20 55/34/34 22/39/39
f 16/43/43 46/17/17 94/20/20 58/44/44
f 95/16/16 28/15/15 10/47/47 59/46/46
f 62/54/54 95/16/16 59/46/46 23/51/51
f 20/24/24 38/13/13 95/16/16 62/54/54
f 96/12/12 48/11/11 18/57/57 63/56/56
f 66/66/66 96/12/12 63/56/56 24/61/61
f 17/65/65 35/9/9 96/12/12 66/66/66
f 97/8/8 45/7/7 15/69/69 67/68/68
f 70/78/78 97/8/8 67/68/68 25/73/73
f 14/77/77 32/5/5 97/8/8 70/78/78
f 98/4/4 42/3/3 12/81/81 71/80/80
f 74/88/88 98/4/4 71/80/80 26/85/85
f 11/31/31 29/1/1 98/4/4 74/88/88
