# Blender v2.81 (sub 16) OBJ File: 'Environment Pack.blend'
# www.blender.org
mtllib Sponge_B_01_LOD2.mtl
o Sponge_B_01_LOD2_Cylinder.426
v -4.959639 0.053592 19.216040
v -5.036295 3.286973 19.472271
v -4.294278 0.061751 19.656042
v -4.638690 3.437998 19.532848
v -4.441256 0.084647 19.843327
v -4.413239 3.437399 20.035988
v -4.617307 0.098237 20.500824
v -4.545259 3.378525 20.571203
v -4.949192 0.036421 20.825912
v -4.980186 3.279980 20.827591
v -5.451725 0.068587 20.883213
v -5.513084 3.233327 20.615303
v -5.764448 0.065647 19.995684
v -5.736418 3.209492 20.142786
v -5.593553 0.069763 19.332741
v -5.509058 3.173627 19.700159
v -4.928665 0.779159 18.919313
v -5.064192 3.187000 19.182474
v -4.479288 3.338730 19.383274
v -4.275501 0.886824 19.244038
v -4.270108 3.319240 19.960850
v -3.916626 0.805519 19.853882
v -4.444290 3.331793 20.522856
v -4.000593 0.814964 20.939735
v -4.945198 3.281477 20.832415
v -5.039931 0.842906 21.368425
v -5.660448 3.357495 20.845118
v -6.281530 0.828739 21.088737
v -5.991680 3.306592 20.215027
v -6.109221 0.756163 20.077263
v -5.635818 3.192602 19.416262
v -6.109650 0.755103 19.241455
v -4.860767 1.707931 18.775221
v -4.022362 1.805191 19.173971
v -3.741503 1.818438 19.879152
v -3.975785 1.890098 20.774183
v -4.990719 1.802122 21.216887
v -6.162817 1.881161 21.157925
v -6.319534 1.873956 20.439224
v -5.834210 1.822419 19.170345
v -4.116409 1.340587 19.177629
v -3.769416 1.303423 19.862900
v -3.932953 1.350346 20.896854
v -5.006299 1.320608 21.341961
v -6.273449 1.351245 21.170610
v -6.284435 1.296881 20.254395
v -6.017184 1.293119 19.165707
v -4.892109 1.239764 18.807302
v -4.899265 2.344607 18.985888
v -4.208889 2.435020 19.241022
v -3.959490 2.431393 19.916744
v -4.186894 2.474267 20.662954
v -4.962023 2.412483 21.057825
v -5.956496 2.499292 21.056665
v -6.154301 2.494549 20.392303
v -5.693538 2.408898 19.323359
v -4.644181 3.564013 19.570532
v -5.009589 3.516262 19.499022
v -4.951693 3.299721 19.145655
v -4.439384 3.572129 20.015747
v -4.555979 3.551394 20.504078
v -4.955472 3.516231 20.745174
v -5.452831 3.499594 20.547337
v -5.654589 3.492428 20.114695
v -5.452082 3.477982 19.709219
v -4.343540 3.351134 19.275112
v -3.913752 3.453805 20.042955
v -4.103019 3.475409 20.850115
v -4.898591 3.439858 21.210762
v -5.835606 3.355521 21.108791
v -6.169093 3.511335 20.373623
v -5.866817 3.410899 19.251055
v -4.972419 3.567069 19.346308
v -4.503627 3.623531 19.444881
v -4.192809 3.673284 20.037291
v -4.341976 3.672433 20.668285
v -4.925088 3.633435 20.961462
v -5.632312 3.583402 20.814407
v -5.902221 3.662977 20.251842
v -5.651919 3.610498 19.496780
vt 0.411458 0.913854
vt 0.411458 0.913854
vt 0.411458 0.913854
vt 0.411458 0.913854
vt 0.411458 0.913854
vt 0.411458 0.913854
vt 0.411458 0.913854
vt 0.411458 0.913854
vt 0.411458 0.913854
vt 0.411458 0.913854
vt 0.411458 0.913854
vt 0.411458 0.913854
vt 0.411458 0.913854
vt 0.411458 0.913854
vt 0.411458 0.913854
vt 0.411458 0.913854
vt 0.411458 0.913854
vt 0.411458 0.913854
vt 0.411458 0.913854
vt 0.411458 0.913854
vt 0.074653 0.913854
vt 0.074653 0.913854
vt 0.074653 0.913854
vt 0.074653 0.913854
vt 0.074653 0.913854
vt 0.074653 0.913854
vt 0.074653 0.913854
vt 0.074653 0.913854
vt 0.411458 0.913854
vt 0.411458 0.913854
vt 0.411458 0.913854
vt 0.411458 0.913854
vt 0.411458 0.913854
vt 0.411458 0.913854
vt 0.229167 0.428611
vt 0.229167 0.428611
vt 0.229167 0.428611
vt 0.229167 0.428611
vt 0.229167 0.428611
vt 0.229167 0.428611
vt 0.229167 0.428611
vt 0.229167 0.428611
vt 0.229167 0.428611
vt 0.229167 0.428611
vt 0.229167 0.428611
vt 0.229167 0.428611
vt 0.229167 0.428611
vt 0.229167 0.428611
vt 0.229167 0.428611
vt 0.229167 0.428611
vt 0.229167 0.428611
vt 0.229167 0.428611
vt 0.229167 0.428611
vt 0.229167 0.428611
vt 0.229167 0.428611
vt 0.229167 0.428611
vt 0.229167 0.428611
vt 0.229167 0.428611
vt 0.229167 0.428611
vt 0.229167 0.428611
vt 0.229167 0.428611
vt 0.229167 0.428611
vt 0.229167 0.428611
vt 0.229167 0.428611
vt 0.229167 0.428611
vt 0.229167 0.428611
vt 0.229167 0.428611
vt 0.229167 0.428611
vt 0.229167 0.428611
vt 0.229167 0.428611
vt 0.229167 0.428611
vt 0.229167 0.428611
vt 0.229167 0.428611
vt 0.229167 0.428611
vt 0.229167 0.428611
vt 0.229167 0.428611
vt 0.229167 0.428611
vt 0.229167 0.428611
vt 0.229167 0.428611
vt 0.229167 0.428611
vt 0.229167 0.428611
vt 0.229167 0.428611
vt 0.411458 0.913854
vt 0.411458 0.913854
vt 0.411458 0.913854
vt 0.411458 0.913854
vt 0.411458 0.913854
vt 0.411458 0.913854
vt 0.411458 0.913854
vt 0.411458 0.913854
vt 0.411458 0.913854
vt 0.411458 0.913854
vt 0.411458 0.913854
vt 0.411458 0.913854
vt 0.411458 0.913854
vt 0.411458 0.913854
vn -0.0992 -0.2402 -0.9656
vn -0.6517 -0.3175 -0.6888
vn -0.6663 0.0870 -0.7405
vn 0.1266 -0.2168 -0.9680
vn -0.7026 0.4584 -0.5442
vn -0.1281 0.4923 -0.8609
vn -0.1345 0.4860 -0.8635
vn -0.7159 0.5126 -0.4740
vn 0.5882 -0.5723 -0.5713
vn 0.6038 -0.2020 -0.7711
vn -0.4433 -0.6374 0.6302
vn 0.2524 -0.5126 0.8206
vn 0.1460 -0.1380 0.9796
vn -0.5759 -0.1428 0.8049
vn 0.5036 0.5491 -0.6670
vn 0.8206 0.5708 0.0281
vn 0.8847 0.4620 0.0616
vn 0.6106 0.4962 -0.6172
vn 0.8608 -0.5087 -0.0110
vn 0.9847 -0.1461 -0.0949
vn -0.5364 0.4545 0.7111
vn 0.0566 0.6084 0.7916
vn 0.4750 0.6456 0.5979
vn -0.8698 0.4920 0.0372
vn -0.5401 0.6280 0.5602
vn 0.0854 0.5590 0.8247
vn 0.6223 0.4916 0.6091
vn 0.1090 -0.7740 -0.6237
vn 0.5966 -0.6968 -0.3980
vn 0.4945 -0.8688 -0.0246
vn 0.3891 -0.8801 0.2721
vn 0.1262 -0.8511 0.5095
vn -0.2984 -0.8267 0.4769
vn -0.5157 -0.8567 -0.0054
vn -0.3910 -0.7854 -0.4799
vn -0.7680 -0.3059 -0.5627
vn 0.1111 -0.2950 -0.9490
vn -0.6776 0.2195 -0.7019
vn -0.0049 0.2593 -0.9658
vn -0.9294 -0.3649 -0.0554
vn -0.9617 0.2714 -0.0378
vn -0.9156 -0.3953 -0.0734
vn -0.7562 -0.3702 0.5395
vn -0.5420 0.3264 0.7744
vn 0.1115 -0.2773 0.9543
vn 0.2198 0.2444 0.9444
vn 0.7335 -0.3621 0.5751
vn 0.7244 0.3156 0.6128
vn 0.6532 -0.5486 0.5219
vn 0.9081 -0.3975 -0.1312
vn 0.9401 0.3383 -0.0429
vn 0.6645 -0.3359 -0.6675
vn 0.6587 0.3145 -0.6835
vn 0.0740 -0.1242 -0.9895
vn 0.0480 0.1198 -0.9916
vn 0.7284 0.1061 -0.6768
vn 0.6910 -0.1910 -0.6972
vn 0.9852 0.1482 -0.0864
vn 0.9774 -0.1498 -0.1488
vn 0.7644 0.2365 0.5998
vn 0.7857 0.0246 0.6180
vn 0.1681 0.2144 0.9622
vn 0.1286 0.0873 0.9878
vn -0.6449 0.2228 0.7310
vn -0.7447 0.0057 0.6673
vn -0.9781 0.1990 -0.0609
vn -0.9922 0.0094 -0.1243
vn -0.6673 0.2065 -0.7156
vn -0.7339 0.0031 -0.6793
vn -0.0042 0.9396 -0.3421
vn 0.1407 0.9185 -0.3693
vn -0.8243 0.5585 0.0922
vn 0.2445 0.9637 -0.1066
vn 0.1491 0.9765 0.1556
vn -0.0241 0.9765 0.2142
vn -0.1049 0.9704 0.2175
vn -0.1285 0.9917 -0.0074
vn -0.0849 0.9662 -0.2431
vn 0.7721 -0.0938 0.6285
vn -0.9847 0.0672 0.1605
usemtl Mat_UnderWater
s 1
f 18/1/1 31/2/2 72/3/3 59/4/4
f 8/5/5 10/6/6 62/7/7 61/8/8
f 19/9/9 18/1/1 59/4/4 66/10/10
f 27/11/11 25/12/12 69/13/13 70/14/14
f 12/15/15 14/16/16 64/17/17 63/18/18
f 21/19/19 19/9/9 66/10/10 67/20/20
f 4/21/21 2/22/22 16/23/23 14/24/16 12/25/15 10/26/6 8/27/5 6/28/24
f 2/29/22 4/30/21 57/31/25 58/32/26
f 16/33/23 2/29/22 58/32/26 65/34/27
f 1/35/28 3/36/29 5/37/30 7/38/31 9/39/32 11/40/33 13/41/34 15/42/35
f 15/42/35 32/43/36 17/44/37 1/35/28
f 56/45/38 31/46/2 18/47/1 49/48/39
f 13/41/34 30/49/40 32/43/36 15/42/35
f 55/50/41 29/51/42 31/46/2 56/45/38
f 11/40/33 28/52/43 30/49/40 13/41/34
f 54/53/44 27/54/11 29/51/42 55/50/41
f 9/39/32 26/55/45 28/52/43 11/40/33
f 53/56/46 25/57/12 27/54/11 54/53/44
f 7/38/31 24/58/47 26/55/45 9/39/32
f 52/59/48 23/60/49 25/57/12 53/56/46
f 5/37/30 22/61/50 24/58/47 7/38/31
f 51/62/51 21/63/19 23/60/49 52/59/48
f 3/36/29 20/64/52 22/61/50 5/37/30
f 50/65/53 19/66/9 21/63/19 51/62/51
f 1/35/28 17/44/37 20/64/52 3/36/29
f 49/48/39 18/47/1 19/66/9 50/65/53
f 48/67/54 33/68/55 34/69/56 41/70/57
f 41/70/57 34/69/56 35/71/58 42/72/59
f 42/72/59 35/71/58 36/73/60 43/74/61
f 43/74/61 36/73/60 37/75/62 44/76/63
f 44/76/63 37/75/62 38/77/64 45/78/65
f 45/78/65 38/77/64 39/79/66 46/80/67
f 46/80/67 39/79/66 40/81/68 47/82/69
f 47/82/69 40/81/68 33/68/55 48/67/54
f 32/43/36 47/82/69 48/67/54 17/44/37
f 30/49/40 46/80/67 47/82/69 32/43/36
f 28/52/43 45/78/65 46/80/67 30/49/40
f 26/55/45 44/76/63 45/78/65 28/52/43
f 24/58/47 43/74/61 44/76/63 26/55/45
f 22/61/50 42/72/59 43/74/61 24/58/47
f 20/64/52 41/70/57 42/72/59 22/61/50
f 17/44/37 48/67/54 41/70/57 20/64/52
f 33/68/55 49/48/39 50/65/53 34/69/56
f 34/69/56 50/65/53 51/62/51 35/71/58
f 35/71/58 51/62/51 52/59/48 36/73/60
f 36/73/60 52/59/48 53/56/46 37/75/62
f 37/75/62 53/56/46 54/53/44 38/77/64
f 38/77/64 54/53/44 55/50/41 39/79/66
f 39/79/66 55/50/41 56/45/38 40/81/68
f 40/81/68 56/45/38 49/48/39 33/68/55
f 73/83/70 58/32/26 57/31/25 74/84/71
f 74/84/71 57/31/25 60/85/72 75/86/73
f 75/86/73 60/85/72 61/8/8 76/87/74
f 76/87/74 61/8/8 62/7/7 77/88/75
f 77/88/75 62/7/7 63/18/18 78/89/76
f 78/89/76 63/18/18 64/17/17 79/90/77
f 79/90/77 64/17/17 65/34/27 80/91/78
f 80/91/78 65/34/27 58/32/26 73/83/70
f 25/12/12 23/92/49 68/93/79 69/13/13
f 4/30/21 6/94/24 60/85/72 57/31/25
f 14/16/16 16/33/23 65/34/27 64/17/17
f 31/2/2 29/95/42 71/96/80 72/3/3
f 23/92/49 21/19/19 67/20/20 68/93/79
f 10/6/6 12/15/15 63/18/18 62/7/7
f 6/94/24 8/5/5 61/8/8 60/85/72
f 29/95/42 27/11/11 70/14/14 71/96/80
f 72/3/3 80/91/78 73/83/70 59/4/4
f 71/96/80 79/90/77 80/91/78 72/3/3
f 70/14/14 78/89/76 79/90/77 71/96/80
f 69/13/13 77/88/75 78/89/76 70/14/14
f 68/93/79 76/87/74 77/88/75 69/13/13
f 67/20/20 75/86/73 76/87/74 68/93/79
f 66/10/10 74/84/71 75/86/73 67/20/20
f 59/4/4 73/83/70 74/84/71 66/10/10
