# Blender v2.81 (sub 16) OBJ File: 'Environment Pack.blend'
# www.blender.org
mtllib Sponge_B_01_LOD1.mtl
o Sponge_B_01_LOD1_Cylinder.383
v -4.726381 0.157205 19.502314
v -4.912402 3.423176 19.732269
v -4.473073 0.164789 19.779045
v -4.721612 3.464681 19.906696
v -4.524578 0.163237 20.189514
v -4.696450 3.449090 20.224627
v -4.788816 0.156461 20.596838
v -4.872571 3.403312 20.469358
v -5.239152 0.151197 20.702492
v -5.169101 3.361762 20.482769
v -5.568788 0.148717 20.351110
v -5.398701 3.339802 20.275713
v -5.586760 0.144099 19.768225
v -5.399439 3.326888 19.995132
v -5.246194 0.145770 19.435549
v -5.184506 3.353122 19.783030
v -5.478693 0.707055 19.064611
v -5.374022 3.075462 19.216032
v -6.084408 0.703237 19.658192
v -5.908576 3.138707 19.802343
v -6.146776 0.729419 20.586666
v -5.925708 3.185696 20.605404
v -5.581846 0.759087 21.197741
v -5.344514 3.163814 20.970041
v -4.545818 0.757768 21.096281
v -4.618909 3.164608 20.810131
v -4.000734 0.745103 20.370117
v -4.206299 3.179111 20.298517
v -4.073220 0.762808 19.562302
v -4.242239 3.166169 19.636538
v -4.577519 0.749624 19.083811
v -4.701491 3.110303 19.197203
v -4.455614 1.794518 18.957876
v -3.881197 1.842278 19.514990
v -3.851592 1.878345 20.344187
v -4.479559 1.877106 21.034809
v -5.568663 1.877031 21.218466
v -6.246037 1.901468 20.774265
v -6.105106 1.869097 19.775522
v -5.374183 1.798138 18.971985
v -5.462539 1.263441 18.965372
v -6.174903 1.295646 19.698824
v -6.293812 1.325147 20.708439
v -5.634195 1.337089 21.275852
v -4.467943 1.336932 21.141441
v -3.831310 1.322915 20.387648
v -3.912564 1.311260 19.507528
v -4.496450 1.281130 18.960459
v -4.557531 2.443435 19.075237
v -4.055670 2.490954 19.567467
v -4.041001 2.511322 20.303740
v -4.558636 2.500679 20.896503
v -5.454295 2.510418 21.085754
v -6.076812 2.542578 20.710066
v -5.973646 2.495131 19.820103
v -5.335355 2.426095 19.110800
v -4.832646 3.571527 19.560402
v -4.558252 3.609991 19.809898
v -4.516531 3.602333 20.264927
v -4.770994 3.566002 20.613157
v -5.205077 3.529533 20.639177
v -5.539979 3.517026 20.349438
v -5.541523 3.508512 19.932056
v -5.226552 3.518885 19.624071
v -5.397573 3.375926 19.216887
v -5.975060 3.463396 19.812901
v -5.961236 3.451752 20.682350
v -5.347259 3.420927 21.098982
v -4.538317 3.462931 20.972229
v -4.073269 3.473116 20.406961
v -4.167710 3.426822 19.657631
v -4.669247 3.359993 19.210253
v -5.312135 3.593314 19.413908
v -5.768510 3.638663 19.872482
v -5.759158 3.627753 20.530510
v -5.277822 3.614752 20.890400
v -4.638241 3.655956 20.816278
v -4.267381 3.674467 20.349566
v -4.343141 3.648399 19.732727
v -4.738961 3.597540 19.380974
v -5.048562 3.359641 20.112024
v -5.008320 0.045059 20.032299
vt 0.411458 0.913854
vt 0.411458 0.913854
vt 0.411458 0.913854
vt 0.411458 0.913854
vt 0.411458 0.913854
vt 0.411458 0.913854
vt 0.411458 0.913854
vt 0.411458 0.913854
vt 0.411458 0.913854
vt 0.411458 0.913854
vt 0.411458 0.913854
vt 0.411458 0.913854
vt 0.411458 0.913854
vt 0.411458 0.913854
vt 0.411458 0.913854
vt 0.411458 0.913854
vt 0.411458 0.913854
vt 0.411458 0.913854
vt 0.411458 0.913854
vt 0.411458 0.913854
vt 0.229167 0.428611
vt 0.229167 0.428611
vt 0.229167 0.428611
vt 0.229167 0.428611
vt 0.229167 0.428611
vt 0.229167 0.428611
vt 0.229167 0.428611
vt 0.229167 0.428611
vt 0.411458 0.913854
vt 0.411458 0.913854
vt 0.411458 0.913854
vt 0.411458 0.913854
vt 0.229167 0.428611
vt 0.229167 0.428611
vt 0.229167 0.428611
vt 0.411458 0.913854
vt 0.411458 0.913854
vt 0.229167 0.428611
vt 0.229167 0.428611
vt 0.229167 0.428611
vt 0.229167 0.428611
vt 0.229167 0.428611
vt 0.229167 0.428611
vt 0.411458 0.913854
vt 0.411458 0.913854
vt 0.074653 0.913854
vt 0.074653 0.913854
vt 0.074653 0.913854
vt 0.074653 0.913854
vt 0.074653 0.913854
vt 0.074653 0.913854
vt 0.074653 0.913854
vt 0.074653 0.913854
vt 0.074653 0.913854
vt 0.229167 0.428611
vt 0.229167 0.428611
vt 0.229167 0.428611
vt 0.411458 0.913854
vt 0.411458 0.913854
vt 0.229167 0.428611
vt 0.229167 0.428611
vt 0.229167 0.428611
vt 0.229167 0.428611
vt 0.229167 0.428611
vt 0.229167 0.428611
vt 0.229167 0.428611
vt 0.229167 0.428611
vt 0.229167 0.428611
vt 0.229167 0.428611
vt 0.229167 0.428611
vt 0.229167 0.428611
vt 0.229167 0.428611
vt 0.229167 0.428611
vt 0.229167 0.428611
vt 0.411458 0.913854
vt 0.411458 0.913854
vt 0.229167 0.428611
vt 0.229167 0.428611
vt 0.229167 0.428611
vt 0.229167 0.428611
vt 0.229167 0.428611
vt 0.229167 0.428611
vt 0.229167 0.428611
vt 0.229167 0.428611
vt 0.229167 0.428611
vt 0.229167 0.428611
vt 0.229167 0.428611
vt 0.229167 0.428611
vt 0.229167 0.428611
vt 0.229167 0.428611
vt 0.411458 0.913854
vt 0.411458 0.913854
vt 0.411458 0.913854
vt 0.411458 0.913854
vt 0.411458 0.913854
vt 0.411458 0.913854
vt 0.411458 0.913854
vt 0.411458 0.913854
vn 0.8923 0.0302 -0.4505
vn 0.3178 0.1060 -0.9422
vn 0.3492 0.2839 -0.8930
vn 0.8753 0.2130 -0.4341
vn 0.9435 0.1473 0.2966
vn 0.9492 -0.1233 0.2895
vn 0.4163 0.8816 -0.2225
vn 0.4953 0.8425 -0.2117
vn 0.1102 0.8703 -0.4800
vn 0.0957 0.8835 -0.4584
vn -0.4971 0.8646 -0.0731
vn -0.3031 0.8729 -0.3822
vn -0.2749 0.8877 -0.3692
vn -0.4173 0.9040 -0.0922
vn -0.3551 0.9277 0.1145
vn -0.4697 0.8650 0.1763
vn 0.1057 0.9002 0.4224
vn -0.2499 0.8784 0.4072
vn -0.1765 0.9351 0.3072
vn 0.1927 0.8704 0.4530
vn 0.8517 -0.4502 0.2681
vn 0.9467 -0.0992 0.3063
vn 0.4784 -0.0148 0.8780
vn 0.4356 -0.4070 0.8029
vn -0.4219 0.0464 -0.9055
vn 0.3441 0.2324 -0.9097
vn -0.4035 0.1720 -0.8986
vn -0.9027 -0.0350 0.4287
vn -0.8256 0.2687 0.4961
vn -0.8784 0.3364 -0.3396
vn -0.9163 -0.0119 -0.4002
vn 0.8730 0.2755 -0.4023
vn 0.9052 0.1195 -0.4077
vn 0.3766 0.1001 -0.9209
vn -0.3795 0.3133 -0.8705
vn -0.3945 -0.0334 -0.9182
vn 0.3660 -0.1334 -0.9210
vn 0.3521 -0.4105 -0.8411
vn -0.3575 -0.3800 -0.8531
vn 0.8091 -0.4461 -0.3825
vn 0.8921 -0.1568 -0.4237
vn 0.4915 0.1212 0.8624
vn 0.5100 -0.1946 0.8378
vn -0.1742 0.9846 0.0132
vn 0.4126 0.8928 0.1807
vn -0.8297 -0.4068 -0.3822
vn -0.1678 -0.8178 -0.5504
vn -0.4844 -0.8448 -0.2273
vn 0.5274 0.8217 0.2158
vn -0.2999 -0.0410 0.9531
vn -0.2958 -0.4352 0.8503
vn -0.8304 -0.4682 0.3019
vn -0.9310 -0.0621 0.3597
vn -0.9073 -0.0016 -0.4205
vn 0.2666 -0.8109 -0.5209
vn 0.0311 -0.9995 0.0014
vn 0.5452 -0.8106 -0.2134
vn 0.5217 -0.8381 0.1595
vn 0.2937 -0.8398 0.4564
vn -0.1329 -0.8477 0.5136
vn -0.4599 -0.8679 0.1878
vn -0.8979 0.1701 -0.4059
vn -0.1750 -0.1312 0.9758
vn -0.2045 0.1575 0.9661
vn -0.8642 0.2567 0.4327
vn -0.1661 0.2232 0.9605
vn 0.4922 0.2023 0.8466
vn 0.9124 0.2556 0.3197
vn 0.9352 0.1641 0.3137
vn 0.4824 0.1835 0.8565
vn -0.2187 0.1710 0.9607
vn -0.8909 0.1832 0.4156
vn -0.8916 0.1798 -0.4155
vn -0.3798 0.1428 -0.9139
vn 0.3345 0.9070 -0.2557
vn 0.1178 0.8888 -0.4428
vn 0.3519 0.9317 0.0892
vn 0.1306 0.9391 0.3178
vn -0.0685 0.9501 0.3042
vn -0.2335 0.9651 0.1189
vn -0.2116 0.9677 -0.1370
vn -0.1061 0.9325 -0.3453
usemtl Mat_UnderWater
s 1
f 30/1/1 32/2/2 72/3/3 71/4/4
f 30/1/1 71/4/4 70/5/5 28/6/6
f 12/7/7 62/8/8 61/9/9 10/10/10
f 6/11/11 8/12/12 60/13/13 59/14/14
f 6/11/11 59/14/14 58/15/15 4/16/16
f 16/17/17 2/18/18 57/19/19 64/20/20
f 27/21/21 46/22/22 45/23/23 25/24/24
f 2/18/18 4/16/16 58/15/15 57/19/19
f 18/25/25 32/26/2 49/27/26 56/28/27
f 22/29/28 67/30/29 66/31/30 20/32/31
f 50/33/32 34/34/33 33/35/34 49/27/26
f 18/36/25 20/32/31 66/31/30 65/37/35
f 41/38/36 48/39/37 31/40/38 17/41/39
f 10/10/10 61/9/9 60/13/13 8/12/12
f 29/42/40 47/43/41 46/22/22 27/21/21
f 28/6/6 70/5/5 69/44/42 26/45/43
f 2/46/18 81/47/44 4/48/16
f 2/46/18 16/49/17 81/47/44
f 14/50/45 81/47/44 16/49/17
f 12/51/7 81/47/44 14/50/45
f 10/52/10 81/47/44 12/51/7
f 8/53/12 81/47/44 10/52/10
f 6/54/11 81/47/44 8/53/12
f 4/48/16 81/47/44 6/54/11
f 19/55/46 17/41/39 15/56/47 13/57/48
f 16/17/17 64/20/20 63/58/49 14/59/45
f 25/24/24 45/23/23 44/60/50 23/61/51
f 21/62/52 43/63/53 42/64/54 19/55/46
f 23/61/51 44/60/50 43/63/53 21/62/52
f 12/7/7 14/59/45 63/58/49 62/8/8
f 1/65/55 82/66/56 15/56/47
f 1/65/55 3/67/57 82/66/56
f 3/67/57 5/68/58 82/66/56
f 5/68/58 7/69/59 82/66/56
f 7/69/59 9/70/60 82/66/56
f 9/70/60 11/71/61 82/66/56
f 11/71/61 13/57/48 82/66/56
f 13/57/48 15/56/47 82/66/56
f 1/65/55 31/40/38 29/42/40 3/67/57
f 20/72/31 18/25/25 56/28/27 55/73/62
f 32/26/2 30/74/1 50/33/32 49/27/26
f 24/75/63 26/45/43 69/44/42 68/76/64
f 21/62/52 19/55/46 13/57/48 11/71/61
f 22/77/28 20/72/31 55/73/62 54/78/65
f 23/61/51 21/62/52 11/71/61 9/70/60
f 24/79/63 22/77/28 54/78/65 53/80/66
f 25/24/24 23/61/51 9/70/60 7/69/59
f 26/81/43 24/79/63 53/80/66 52/82/67
f 27/21/21 25/24/24 7/69/59 5/68/58
f 28/83/6 26/81/43 52/82/67 51/84/68
f 29/42/40 27/21/21 5/68/58 3/67/57
f 30/74/1 28/83/6 51/84/68 50/33/32
f 17/41/39 31/40/38 1/65/55 15/56/47
f 33/35/34 34/34/33 47/43/41 48/39/37
f 19/55/46 42/64/54 41/38/36 17/41/39
f 51/84/68 35/85/69 34/34/33 50/33/32
f 35/85/69 46/22/22 47/43/41 34/34/33
f 36/86/70 45/23/23 46/22/22 35/85/69
f 37/87/71 44/60/50 45/23/23 36/86/70
f 38/88/72 43/63/53 44/60/50 37/87/71
f 39/89/73 42/64/54 43/63/53 38/88/72
f 40/90/74 41/38/36 42/64/54 39/89/73
f 41/38/36 40/90/74 33/35/34 48/39/37
f 31/40/38 48/39/37 47/43/41 29/42/40
f 57/19/19 58/15/15 79/91/75 80/92/76
f 52/82/67 36/86/70 35/85/69 51/84/68
f 53/80/66 37/87/71 36/86/70 52/82/67
f 54/78/65 38/88/72 37/87/71 53/80/66
f 55/73/62 39/89/73 38/88/72 54/78/65
f 56/28/27 40/90/74 39/89/73 55/73/62
f 56/28/27 49/27/26 33/35/34 40/90/74
f 59/14/14 78/93/77 79/91/75 58/15/15
f 60/13/13 77/94/78 78/93/77 59/14/14
f 61/9/9 76/95/79 77/94/78 60/13/13
f 62/8/8 75/96/80 76/95/79 61/9/9
f 63/58/49 74/97/81 75/96/80 62/8/8
f 64/20/20 73/98/82 74/97/81 63/58/49
f 64/20/20 57/19/19 80/92/76 73/98/82
f 24/75/63 68/76/64 67/30/29 22/29/28
f 74/97/81 73/98/82 65/37/35 66/31/30
f 72/3/3 80/92/76 79/91/75 71/4/4
f 75/96/80 74/97/81 66/31/30 67/30/29
f 76/95/79 75/96/80 67/30/29 68/76/64
f 77/94/78 76/95/79 68/76/64 69/44/42
f 78/93/77 77/94/78 69/44/42 70/5/5
f 79/91/75 78/93/77 70/5/5 71/4/4
f 73/98/82 80/92/76 72/3/3 65/37/35
f 32/2/2 18/36/25 65/37/35 72/3/3
