# Blender v2.81 (sub 16) OBJ File: 'Environment Pack.blend'
# www.blender.org
mtllib Anemone_B_02_LOD2.mtl
o Anemone_B_02_LOD2_Cube.543
v 13.715668 -0.160198 30.820663
v 13.600066 -0.160357 31.405092
v 13.130023 -0.178896 30.701233
v 13.014814 -0.178966 31.283455
v 13.757395 -0.156105 31.133179
v 12.974257 -0.181384 30.972210
v 13.287730 -0.168803 31.442204
v 13.442228 -0.168654 30.662998
v 13.746948 1.528146 30.769993
v 13.179027 1.488103 30.699903
v 13.391504 1.493388 31.400057
v 13.812931 1.529112 31.059664
v 13.477164 1.510786 30.637918
v 13.684077 1.515472 31.334305
v 13.114531 1.475330 31.269260
v 13.047467 1.474852 30.968729
v 13.980209 1.142483 31.067211
v 13.458719 1.129064 30.403065
v 13.774630 1.102705 31.486546
v 12.887921 1.030432 31.378351
v 12.788390 1.044533 30.919024
v 13.880807 1.155579 30.609875
v 12.997578 1.084447 30.498219
v 13.313503 1.056647 31.585283
v 16.177120 -0.146932 30.921719
v 15.815030 -0.144895 30.904863
v 16.214754 -0.129794 30.460417
v 15.801020 -0.128008 30.554123
v 15.990865 -0.152752 31.056778
v 15.974935 -0.124770 30.396944
v 15.751438 -0.136288 30.735380
v 16.238171 -0.135932 30.699810
v 16.377354 1.091076 30.651947
v 16.346182 1.096052 30.214533
v 15.697897 1.094840 30.552040
v 16.252094 1.088237 30.783710
v 16.372362 1.098482 30.458395
v 15.883519 1.071301 30.917271
v 15.746656 1.107198 30.285379
v 15.985189 1.089652 30.019194
v 16.185785 0.654747 30.971935
v 16.540934 0.648765 30.498751
v 15.673469 0.672344 31.042492
v 15.569099 0.674707 30.182709
v 15.984434 0.646642 29.833765
v 16.410189 0.644260 30.794209
v 16.456741 0.641906 30.083073
v 15.462487 0.673101 30.566753
v 15.881067 -0.162059 27.948631
v 16.161818 -0.166585 28.459404
v 15.272360 -0.151376 28.267002
v 15.714348 -0.156400 28.743114
v 16.211424 -0.168608 28.097368
v 15.384815 -0.152067 28.638439
v 15.987015 -0.161685 28.674078
v 15.551714 -0.155474 28.044151
v 15.634332 1.758383 27.807869
v 15.212863 1.834461 28.129162
v 15.975639 1.666565 28.577305
v 15.849998 1.713258 27.856489
v 15.444027 1.804651 27.943909
v 16.217148 1.604138 28.138231
v 15.682526 1.734251 28.711201
v 15.255944 1.789572 28.642445
v 15.946084 0.991733 27.740938
v 15.389106 1.106755 27.715599
v 16.248558 0.943513 28.119051
v 15.638612 1.080789 28.675816
v 15.159184 1.161255 28.525742
v 15.689115 1.038929 27.655109
v 15.109138 1.162627 28.010017
v 15.991536 1.000370 28.548925
v 13.774209 -0.169748 29.144808
v 13.369357 -0.150961 29.129433
v 13.809324 -0.158421 28.646984
v 13.363194 -0.139022 28.743856
v 13.566399 -0.167043 29.294359
v 13.550841 -0.144624 28.581184
v 13.301761 -0.142146 28.940544
v 13.837400 -0.163522 28.899620
v 14.862162 -0.156402 32.054569
v 14.745099 -0.152648 32.547619
v 14.485590 -0.137759 32.222809
v 15.136382 -0.177217 32.413021
v 14.585164 -0.141962 32.440388
v 14.619749 -0.146123 32.004421
v 14.931614 -0.164202 32.540474
v 15.062542 -0.169822 32.186424
v 14.081161 1.118836 29.102882
v 14.044063 1.128974 28.644947
v 13.366602 1.081509 28.977615
v 13.953209 1.105322 29.235725
v 14.073323 1.129058 28.915440
v 13.566530 1.059822 29.339828
v 13.417482 1.104170 28.708439
v 13.664784 1.104941 28.410986
v 13.801688 0.740396 29.327766
v 14.103530 0.767341 28.917116
v 13.354008 0.737144 29.415854
v 13.251645 0.782955 28.689686
v 13.610154 0.790803 28.364687
v 13.993577 0.748420 29.165213
v 14.023415 0.782291 28.562105
v 13.162134 0.758714 29.016722
v 15.066428 0.987601 31.850931
v 14.614090 0.982002 31.741367
v 14.736930 0.976456 32.494301
v 15.154580 0.984819 32.016155
v 14.878650 0.994791 31.790052
v 15.149328 0.955385 32.433586
v 14.489239 0.987477 32.357502
v 14.285942 0.959899 32.044193
v 15.155330 0.616520 32.118702
v 14.870712 0.617775 31.767771
v 15.115141 0.625509 32.532246
v 14.426490 0.655491 32.407860
v 14.232201 0.629089 32.027668
v 15.066916 0.609242 31.915741
v 14.543553 0.617617 31.725016
v 14.694712 0.645144 32.578491
v 18.003052 -0.160198 28.817970
v 17.887451 -0.160357 29.402399
v 17.417408 -0.178896 28.698540
v 17.302198 -0.178966 29.280762
v 18.044779 -0.156105 29.130486
v 17.261641 -0.181384 28.969517
v 17.575113 -0.168803 29.439510
v 17.729612 -0.168654 28.660305
v 18.419054 1.869037 28.598209
v 17.646429 1.981474 28.450291
v 17.872211 1.936020 29.440138
v 18.483259 1.855017 29.006273
v 18.061062 1.923399 28.390434
v 18.279987 1.878493 29.375177
v 17.505070 1.991121 29.233479
v 17.440634 2.006339 28.811199
v 18.620970 1.430453 29.030174
v 17.974997 1.555119 28.066029
v 18.295900 1.450401 29.588472
v 17.096582 1.620824 29.358469
v 17.006325 1.658738 28.716730
v 18.530575 1.467925 28.390564
v 17.335793 1.637537 28.156796
v 17.655441 1.531613 29.683460
v 16.927666 -0.146932 32.157444
v 16.862913 -0.144895 31.800793
v 17.385662 -0.129794 32.090698
v 17.201584 -0.128008 31.708506
v 16.754288 -0.152752 32.006210
v 17.393753 -0.124770 31.842754
v 17.013824 -0.136288 31.700823
v 17.157612 -0.135932 32.167191
v 17.213999 1.506668 32.477543
v 17.628191 1.511911 32.350281
v 17.160252 1.510042 31.803520
v 17.060408 1.503502 32.386379
v 17.399300 1.513020 32.429146
v 16.850050 1.488141 32.062042
v 17.427588 1.522355 31.791225
v 17.736141 1.506357 31.960880
v 16.936909 1.069713 32.320484
v 17.379234 1.065012 32.517216
v 16.784288 1.077159 31.924385
v 17.452501 1.073581 31.685478
v 17.808212 1.053847 31.951437
v 17.118809 1.062501 32.466473
v 17.696747 1.055639 32.372997
v 17.126171 1.072035 31.670021
vt 0.236051 0.262383
vt 0.236051 0.262383
vt 0.236051 0.262383
vt 0.236051 0.262383
vt 0.236051 0.262383
vt 0.236051 0.262383
vt 0.236051 0.262383
vt 0.236051 0.262383
vt 0.236051 0.262383
vt 0.236051 0.262383
vt 0.236051 0.262383
vt 0.236051 0.262383
vt 0.236051 0.262383
vt 0.236051 0.262383
vt 0.236051 0.262383
vt 0.236051 0.262383
vt 0.236051 0.262383
vt 0.236051 0.262383
vt 0.236051 0.262383
vt 0.236051 0.262383
vt 0.406190 0.262383
vt 0.406190 0.262383
vt 0.406190 0.262383
vt 0.406190 0.262383
vt 0.406190 0.262383
vt 0.406190 0.262383
vt 0.406190 0.262383
vt 0.406190 0.262383
vt 0.406190 0.262383
vt 0.406190 0.262383
vt 0.406190 0.262383
vt 0.406190 0.262383
vt 0.406190 0.262383
vt 0.406190 0.262383
vt 0.406190 0.262383
vt 0.406190 0.262383
vt 0.236051 0.262383
vt 0.236051 0.262383
vt 0.236051 0.262383
vt 0.236051 0.262383
vt 0.236051 0.262383
vt 0.236051 0.262383
vt 0.236051 0.262383
vt 0.236051 0.262383
vt 0.236051 0.262383
vt 0.236051 0.262383
vt 0.236051 0.262383
vt 0.236051 0.262383
vt 0.236051 0.262383
vt 0.236051 0.262383
vt 0.236051 0.262383
vt 0.236051 0.262383
vt 0.236051 0.262383
vt 0.236051 0.262383
vt 0.236051 0.262383
vt 0.236051 0.262383
vt 0.406190 0.262383
vt 0.406190 0.262383
vt 0.406190 0.262383
vt 0.406190 0.262383
vt 0.406190 0.262383
vt 0.406190 0.262383
vt 0.406190 0.262383
vt 0.406190 0.262383
vt 0.406190 0.262383
vt 0.406190 0.262383
vt 0.406190 0.262383
vt 0.406190 0.262383
vt 0.406190 0.262383
vt 0.406190 0.262383
vt 0.406190 0.262383
vt 0.406190 0.262383
vt 0.236051 0.262383
vt 0.236051 0.262383
vt 0.236051 0.262383
vt 0.236051 0.262383
vt 0.236051 0.262383
vt 0.236051 0.262383
vt 0.236051 0.262383
vt 0.236051 0.262383
vt 0.236051 0.262383
vt 0.236051 0.262383
vt 0.236051 0.262383
vt 0.236051 0.262383
vt 0.406190 0.262383
vt 0.406190 0.262383
vt 0.406190 0.262383
vt 0.406190 0.262383
vt 0.406190 0.262383
vt 0.406190 0.262383
vt 0.406190 0.262383
vt 0.406190 0.262383
vt 0.406190 0.262383
vt 0.406190 0.262383
vt 0.406190 0.262383
vt 0.406190 0.262383
vt 0.406190 0.262383
vt 0.406190 0.262383
vt 0.406190 0.262383
vt 0.406190 0.262383
vt 0.236051 0.262383
vt 0.236051 0.262383
vt 0.236051 0.262383
vt 0.236051 0.262383
vt 0.236051 0.262383
vt 0.236051 0.262383
vt 0.236051 0.262383
vt 0.236051 0.262383
vt 0.236051 0.262383
vt 0.236051 0.262383
vt 0.236051 0.262383
vt 0.236051 0.262383
vt 0.236051 0.262383
vt 0.236051 0.262383
vt 0.236051 0.262383
vt 0.236051 0.262383
vt 0.236051 0.262383
vt 0.236051 0.262383
vt 0.236051 0.262383
vt 0.236051 0.262383
vt 0.406190 0.262383
vt 0.406190 0.262383
vt 0.406190 0.262383
vt 0.406190 0.262383
vt 0.406190 0.262383
vt 0.406190 0.262383
vt 0.406190 0.262383
vt 0.406190 0.262383
vt 0.406190 0.262383
vt 0.406190 0.262383
vt 0.406190 0.262383
vt 0.406190 0.262383
vt 0.406190 0.262383
vt 0.406190 0.262383
vt 0.406190 0.262383
vt 0.406190 0.262383
vt 0.236051 0.262383
vt 0.236051 0.262383
vt 0.236051 0.262383
vt 0.236051 0.262383
vt 0.236051 0.262383
vt 0.236051 0.262383
vt 0.236051 0.262383
vt 0.236051 0.262383
vt 0.236051 0.262383
vt 0.236051 0.262383
vt 0.406190 0.262383
vt 0.406190 0.262383
vt 0.406190 0.262383
vt 0.406190 0.262383
vt 0.236051 0.262383
vt 0.236051 0.262383
vt 0.406190 0.262383
vt 0.406190 0.262383
vt 0.406190 0.262383
vt 0.406190 0.262383
vt 0.406190 0.262383
vt 0.406190 0.262383
vt 0.406190 0.262383
vt 0.406190 0.262383
vt 0.406190 0.262383
vt 0.406190 0.262383
vt 0.406190 0.262383
vt 0.406190 0.262383
vt 0.236051 0.262383
vt 0.236051 0.262383
vt 0.236051 0.262383
vt 0.236051 0.262383
vt 0.236051 0.262383
vt 0.236051 0.262383
vt 0.236051 0.262383
vt 0.236051 0.262383
vt 0.236051 0.262383
vt 0.236051 0.262383
vt 0.236051 0.262383
vt 0.236051 0.262383
vt 0.236051 0.262383
vt 0.236051 0.262383
vt 0.236051 0.262383
vt 0.236051 0.262383
vt 0.406190 0.262383
vt 0.406190 0.262383
vt 0.406190 0.262383
vt 0.406190 0.262383
vt 0.406190 0.262383
vt 0.406190 0.262383
vt 0.406190 0.262383
vt 0.406190 0.262383
vt 0.406190 0.262383
vt 0.406190 0.262383
vt 0.406190 0.262383
vt 0.406190 0.262383
vt 0.406190 0.262383
vt 0.406190 0.262383
vt 0.406190 0.262383
vt 0.406190 0.262383
vt 0.236051 0.262383
vt 0.236051 0.262383
vt 0.236051 0.262383
vt 0.236051 0.262383
vt 0.236051 0.262383
vt 0.236051 0.262383
vt 0.236051 0.262383
vt 0.236051 0.262383
vt 0.236051 0.262383
vt 0.236051 0.262383
vt 0.236051 0.262383
vt 0.236051 0.262383
vt 0.406190 0.262383
vt 0.406190 0.262383
vt 0.406190 0.262383
vt 0.406190 0.262383
vt 0.406190 0.262383
vt 0.406190 0.262383
vt 0.406190 0.262383
vt 0.406190 0.262383
vt 0.406190 0.262383
vt 0.406190 0.262383
vt 0.406190 0.262383
vt 0.406190 0.262383
vt 0.406190 0.262383
vt 0.406190 0.262383
vt 0.406190 0.262383
vt 0.406190 0.262383
vn 0.7158 -0.6882 0.1183
vn 0.9845 0.1196 0.1281
vn 0.5948 0.1267 0.7938
vn 0.4401 -0.6601 0.6087
vn -0.1504 0.1452 0.9779
vn -0.1001 -0.6825 0.7239
vn -0.6967 -0.7092 -0.1079
vn -0.9747 0.1782 -0.1345
vn -0.5995 0.1797 -0.7799
vn -0.4093 -0.6973 -0.5884
vn -0.7930 0.1672 0.5857
vn -0.5876 -0.6769 0.4433
vn 0.0044 -0.6279 0.7782
vn 0.0224 -0.0085 0.9997
vn -0.7974 -0.0110 0.6033
vn -0.5481 -0.6360 0.5432
vn 0.1178 0.1669 -0.9789
vn 0.1333 -0.7136 -0.6878
vn 0.7747 0.1476 -0.6148
vn 0.6011 -0.6837 -0.4138
vn -0.5859 0.8092 -0.0424
vn -0.3852 0.8170 -0.4290
vn -0.4870 0.7804 0.3922
vn 0.0327 0.8322 -0.5535
vn 0.4581 0.8148 -0.3554
vn 0.3656 0.7752 0.5151
vn -0.1032 0.7801 0.6170
vn 0.5874 0.8038 0.0935
vn -0.3317 -0.7599 -0.5590
vn -0.4959 0.0036 -0.8683
vn 0.0115 -0.0117 -0.9998
vn 0.0479 -0.7221 -0.6901
vn 0.1763 -0.5860 0.7909
vn 0.3663 0.1142 0.9234
vn -0.5636 0.1541 0.8115
vn -0.4073 -0.7513 0.5192
vn -0.9948 0.0801 0.0620
vn -0.6522 -0.7559 0.0559
vn -0.1228 -0.8181 -0.5618
vn -0.1187 -0.0838 -0.9894
vn 0.7787 -0.0765 -0.6226
vn 0.5159 -0.7729 -0.3692
vn -0.8459 -0.0085 -0.5332
vn -0.5199 -0.7950 -0.3125
vn 0.9985 -0.0182 0.0518
vn 0.6219 -0.7802 0.0674
vn 0.8320 0.0412 0.5532
vn 0.5624 -0.6960 0.4464
vn -0.0989 0.7438 -0.6610
vn 0.5539 0.7492 -0.3630
vn -0.5122 0.8084 -0.2899
vn 0.5969 0.8017 0.0299
vn 0.6048 0.7190 0.3424
vn -0.1972 0.7418 0.6409
vn -0.5693 0.8189 0.0728
vn 0.3322 0.7519 0.5694
vn 0.6125 -0.6150 -0.4965
vn 0.5862 0.0148 -0.8100
vn 0.9981 0.0534 -0.0286
vn 0.7239 -0.6706 0.1623
vn 0.6382 0.0375 0.7689
vn 0.4631 -0.6151 0.6381
vn -0.9285 0.0203 -0.3708
vn -0.7295 -0.6551 -0.1965
vn -0.6186 -0.6790 -0.3952
vn -0.8621 0.1511 -0.4837
vn -0.1735 0.0385 -0.9841
vn -0.1706 -0.6820 -0.7112
vn -0.4993 0.6255 0.5995
vn -0.6041 0.7602 -0.2388
vn 0.1681 0.6035 0.7794
vn -0.2028 0.8267 -0.5247
vn 0.0667 0.7119 -0.6991
vn 0.8512 0.5168 -0.0918
vn 0.5728 0.5690 0.5900
vn 0.4503 0.6977 -0.5571
vn 0.7819 -0.6174 0.0856
vn 0.9910 -0.0829 -0.1048
vn 0.6386 0.0587 0.7673
vn 0.3417 -0.7150 0.6099
vn 0.1544 -0.6438 0.7494
vn 0.3603 -0.0600 0.9309
vn -0.5458 0.1234 0.8287
vn -0.4595 -0.7425 0.4874
vn -0.9751 0.1923 0.1104
vn -0.7288 -0.6844 0.0179
vn 0.7756 -0.0785 -0.6263
vn 0.5354 -0.6871 -0.4911
vn -0.5505 -0.6765 0.4890
vn -0.7401 0.0491 0.6707
vn -0.9843 -0.0544 -0.1680
vn -0.6998 -0.7139 -0.0229
vn 0.9902 -0.1321 0.0455
vn 0.6301 -0.7759 0.0314
vn 0.8249 -0.1447 0.5465
vn 0.5467 -0.7309 0.4085
vn -0.0853 0.6787 -0.7294
vn 0.6314 0.6734 -0.3844
vn -0.5424 0.7943 -0.2736
vn 0.6861 0.7260 0.0464
vn 0.6879 0.6097 0.3939
vn -0.1732 0.6959 0.6969
vn -0.5677 0.8178 0.0941
vn 0.3739 0.6507 0.6608
vn -0.3405 -0.1306 -0.9311
vn -0.2647 -0.7258 -0.6349
vn -0.6095 -0.6724 0.4199
vn -0.7858 0.3196 0.5295
vn -0.9191 0.3430 -0.1937
vn -0.6930 -0.7107 -0.1211
vn 0.2145 -0.7838 -0.5827
vn 0.3284 -0.1612 -0.9306
vn 0.7406 -0.1585 -0.6529
vn 0.5513 -0.7287 -0.4062
vn -0.4726 0.7403 0.4781
vn -0.7549 0.6489 -0.0952
vn -0.2302 0.1045 0.9675
vn -0.2008 -0.6582 0.7255
vn -0.1828 0.6594 -0.7292
vn 0.2305 0.7060 -0.6697
vn 0.5695 0.5993 -0.5625
vn 0.6385 0.6114 0.4675
vn -0.1268 0.7339 0.6673
vn 0.7507 0.6367 -0.1762
vn 0.6478 -0.7480 0.1440
vn 0.9842 -0.0161 0.1762
vn 0.5637 0.0721 0.8228
vn 0.3767 -0.6941 0.6134
vn -0.1751 0.2128 0.9612
vn -0.1443 -0.6892 0.7100
vn -0.5141 0.2737 -0.8129
vn -0.4079 -0.7208 -0.5604
vn 0.2369 -0.6668 -0.7065
vn 0.3246 0.0666 -0.9435
vn 0.9431 -0.0442 -0.3295
vn 0.6367 -0.7014 -0.3203
vn 0.2003 0.1455 -0.9688
vn 0.1108 -0.7653 -0.6341
vn 0.8171 0.0259 -0.5759
vn 0.5438 -0.7557 -0.3650
vn -0.3220 0.9446 -0.0627
vn -0.1266 0.9133 -0.3871
vn -0.2730 0.9040 0.3290
vn 0.2405 0.8445 -0.4785
vn 0.6034 0.7459 -0.2821
vn 0.4688 0.7291 0.4987
vn 0.0445 0.8271 0.5603
vn 0.6949 0.7077 0.1276
vn -0.7473 -0.5771 0.3293
vn -0.8208 0.0203 0.5708
vn -0.9243 0.1474 -0.3521
vn -0.6360 -0.6916 -0.3422
vn -0.2907 0.1475 -0.9453
vn -0.2147 -0.6416 -0.7364
vn 0.7640 -0.0937 0.6384
vn 0.5544 -0.7141 0.4274
vn 0.1676 -0.0855 0.9821
vn 0.0900 -0.7722 0.6289
vn -0.3497 -0.0551 0.9352
vn -0.2972 -0.7068 0.6419
vn 0.6999 0.6570 -0.2801
vn 0.5359 0.6754 0.5065
vn 0.1860 0.7428 -0.6431
vn 0.1222 0.7451 0.6557
vn -0.2103 0.6508 0.7295
vn -0.7528 0.6543 -0.0708
vn -0.2254 0.7524 -0.6189
vn -0.5303 0.6859 0.4983
usemtl Mat_UnderWater
s 1
f 5/1/1 17/2/2 19/3/3 2/4/4
f 2/4/4 19/3/3 24/5/5 7/6/6
f 6/7/7 21/8/8 23/9/9 3/10/10
f 24/5/5 20/11/11 4/12/12 7/6/6
f 52/13/13 68/14/14 69/15/15 54/16/16
f 3/10/10 23/9/9 18/17/17 8/18/18
f 8/18/18 18/17/17 22/19/19 1/20/20
f 21/21/8 16/22/21 10/23/22 23/24/9
f 20/25/11 15/26/23 16/22/21 21/21/8
f 18/27/17 13/28/24 9/29/25 22/30/19
f 19/31/3 14/32/26 11/33/27 24/34/5
f 24/34/5 11/33/27 15/26/23 20/25/11
f 17/35/2 12/36/28 14/32/26 19/31/3
f 23/24/9 10/23/22 13/28/24 18/27/17
f 22/30/19 9/29/25 12/36/28 17/35/2
f 16/22/21 15/26/23 11/33/27 14/32/26 12/36/28 9/29/25 13/28/24 10/23/22
f 56/37/29 66/38/30 70/39/31 49/40/32
f 29/41/33 41/42/34 43/43/35 26/44/36
f 26/44/36 43/43/35 48/45/37 31/46/38
f 30/47/39 45/48/40 47/49/41 27/50/42
f 48/45/37 44/51/43 28/52/44 31/46/38
f 4/12/12 20/11/11 21/8/8 6/7/7
f 27/50/42 47/49/41 42/53/45 32/54/46
f 32/54/46 42/53/45 46/55/47 25/56/48
f 45/57/40 40/58/49 34/59/50 47/60/41
f 44/61/43 39/62/51 40/58/49 45/57/40
f 42/63/45 37/64/52 33/65/53 46/66/47
f 43/67/35 38/68/54 35/69/55 48/70/37
f 48/70/37 35/69/55 39/62/51 44/61/43
f 41/71/34 36/72/56 38/68/54 43/67/35
f 47/60/41 34/59/50 37/64/52 42/63/45
f 46/66/47 33/65/53 36/72/56 41/71/34
f 40/58/49 39/62/51 35/69/55 38/68/54 36/72/56 33/65/53 37/64/52 34/59/50
f 25/56/48 29/41/33 26/44/36 31/46/38 28/52/44 30/47/39 27/50/42 32/54/46
f 25/56/48 46/55/47 41/42/34 29/41/33
f 1/20/20 5/1/1 2/4/4 7/6/6 4/12/12 6/7/7 3/10/10 8/18/18
f 1/20/20 22/19/19 17/2/2 5/1/1
f 53/73/57 65/74/58 67/75/59 50/76/60
f 50/76/60 67/75/59 72/77/61 55/78/62
f 54/16/16 69/15/15 71/79/63 51/80/64
f 72/77/61 68/14/14 52/13/13 55/78/62
f 76/81/65 100/82/66 101/83/67 78/84/68
f 51/80/64 71/79/63 66/38/30 56/37/29
f 69/85/15 64/86/69 58/87/70 71/88/63
f 68/89/14 63/90/71 64/86/69 69/85/15
f 66/91/30 61/92/72 57/93/73 70/94/31
f 67/95/59 62/96/74 59/97/75 72/98/61
f 72/98/61 59/97/75 63/90/71 68/89/14
f 65/99/58 60/100/76 62/96/74 67/95/59
f 71/88/63 58/87/70 61/92/72 66/91/30
f 70/94/31 57/93/73 60/100/76 65/99/58
f 64/86/69 63/90/71 59/97/75 62/96/74 60/100/76 57/93/73 61/92/72 58/87/70
f 49/40/32 53/73/57 50/76/60 55/78/62 52/13/13 54/16/16 51/80/64 56/37/29
f 49/40/32 70/39/31 65/74/58 53/73/57
f 84/101/77 113/102/78 115/103/79 87/104/80
f 77/105/81 97/106/82 99/107/83 74/108/84
f 74/108/84 99/107/83 104/109/85 79/110/86
f 78/84/68 101/83/67 103/111/87 75/112/88
f 104/109/85 100/82/66 76/81/65 79/110/86
f 85/113/89 116/114/90 117/115/91 83/116/92
f 75/112/88 103/111/87 98/117/93 80/118/94
f 80/118/94 98/117/93 102/119/95 73/120/96
f 101/121/67 96/122/97 90/123/98 103/124/87
f 100/125/66 95/126/99 96/122/97 101/121/67
f 98/127/93 93/128/100 89/129/101 102/130/95
f 99/131/83 94/132/102 91/133/103 104/134/85
f 104/134/85 91/133/103 95/126/99 100/125/66
f 97/135/82 92/136/104 94/132/102 99/131/83
f 103/124/87 90/123/98 93/128/100 98/127/93
f 102/130/95 89/129/101 92/136/104 97/135/82
f 96/122/97 95/126/99 91/133/103 94/132/102 92/136/104 89/129/101 93/128/100 90/123/98
f 83/116/92 117/115/91 119/137/105 86/138/106
f 124/139/107 140/140/108 141/141/109 126/142/110
f 81/143/111 114/144/112 118/145/113 88/146/114
f 116/147/90 111/148/115 112/149/116 117/150/91
f 87/104/80 115/103/79 120/151/117 82/152/118
f 120/151/117 116/114/90 85/113/89 82/152/118
f 86/138/106 119/137/105 114/144/112 81/143/111
f 117/150/91 112/149/116 106/153/119 119/154/105
f 73/120/96 77/105/81 74/108/84 79/110/86 76/81/65 78/84/68 75/112/88 80/118/94
f 73/120/96 102/119/95 97/106/82 77/105/81
f 114/155/112 109/156/120 105/157/121 118/158/113
f 115/159/79 110/160/122 107/161/123 120/162/117
f 120/162/117 107/161/123 111/148/115 116/147/90
f 113/163/78 108/164/124 110/160/122 115/159/79
f 119/154/105 106/153/119 109/156/120 114/155/112
f 118/158/113 105/157/121 108/164/124 113/163/78
f 112/149/116 111/148/115 107/161/123 110/160/122 108/164/124 105/157/121 109/156/120 106/153/119
f 88/146/114 84/101/77 87/104/80 82/152/118 85/113/89 83/116/92 86/138/106 81/143/111
f 88/146/114 118/145/113 113/102/78 84/101/77
f 125/165/125 137/166/126 139/167/127 122/168/128
f 122/168/128 139/167/127 144/169/129 127/170/130
f 126/142/110 141/141/109 143/171/131 123/172/132
f 144/169/129 140/140/108 124/139/107 127/170/130
f 148/173/133 164/174/134 165/175/135 150/176/136
f 123/172/132 143/171/131 138/177/137 128/178/138
f 128/178/138 138/177/137 142/179/139 121/180/140
f 141/181/109 136/182/141 130/183/142 143/184/131
f 140/185/108 135/186/143 136/182/141 141/181/109
f 138/187/137 133/188/144 129/189/145 142/190/139
f 139/191/127 134/192/146 131/193/147 144/194/129
f 144/194/129 131/193/147 135/186/143 140/185/108
f 137/195/126 132/196/148 134/192/146 139/191/127
f 143/184/131 130/183/142 133/188/144 138/187/137
f 142/190/139 129/189/145 132/196/148 137/195/126
f 136/182/141 135/186/143 131/193/147 134/192/146 132/196/148 129/189/145 133/188/144 130/183/142
f 121/180/140 125/165/125 122/168/128 127/170/130 124/139/107 126/142/110 123/172/132 128/178/138
f 121/180/140 142/179/139 137/166/126 125/165/125
f 149/197/149 161/198/150 163/199/151 146/200/152
f 146/200/152 163/199/151 168/201/153 151/202/154
f 150/176/136 165/175/135 167/203/155 147/204/156
f 168/201/153 164/174/134 148/173/133 151/202/154
f 147/204/156 167/203/155 162/205/157 152/206/158
f 152/206/158 162/205/157 166/207/159 145/208/160
f 165/209/135 160/210/161 154/211/162 167/212/155
f 164/213/134 159/214/163 160/210/161 165/209/135
f 162/215/157 157/216/164 153/217/165 166/218/159
f 163/219/151 158/220/166 155/221/167 168/222/153
f 168/222/153 155/221/167 159/214/163 164/213/134
f 161/223/150 156/224/168 158/220/166 163/219/151
f 167/212/155 154/211/162 157/216/164 162/215/157
f 166/218/159 153/217/165 156/224/168 161/223/150
f 160/210/161 159/214/163 155/221/167 158/220/166 156/224/168 153/217/165 157/216/164 154/211/162
f 145/208/160 149/197/149 146/200/152 151/202/154 148/173/133 150/176/136 147/204/156 152/206/158
f 145/208/160 166/207/159 161/198/150 149/197/149
f 28/52/44 44/51/43 45/48/40 30/47/39
